<svg id="Layer_1" data-name="Layer 1" xmlns="http://www.w3.org/2000/svg" xmlns:xlink="http://www.w3.org/1999/xlink" width="806" height="511" viewBox="0 0 806 611"><defs><style>.cls-1,.cls-102,.cls-129,.cls-16,.cls-17,.cls-81,.cls-97{fill:#fff;}.cls-1{fill-rule:evenodd;}.cls-2{fill:#393d64;}.cls-3{fill:url(#linear-gradient);}.cls-4{fill:url(#linear-gradient-2);}.cls-5{fill:url(#linear-gradient-3);}.cls-11,.cls-6{fill:none;stroke-linecap:round;}.cls-6{stroke:#f9f9f9;stroke-miterlimit:10;stroke-width:0.97px;}.cls-7{fill:url(#linear-gradient-4);}.cls-8{fill:url(#linear-gradient-5);}.cls-9{fill:#91d6e2;}.cls-10{opacity:0.25;}.cls-11{stroke:#fff;stroke-linejoin:round;stroke-width:1.13px;}.cls-12{fill:url(#linear-gradient-6);}.cls-13{fill:url(#linear-gradient-7);}.cls-14{mask:url(#mask);}.cls-15{fill:url(#linear-gradient-8);}.cls-17{opacity:0.45;}.cls-102,.cls-103,.cls-110,.cls-129,.cls-17,.cls-23,.cls-28,.cls-29,.cls-30,.cls-33,.cls-37,.cls-42,.cls-45,.cls-53,.cls-59,.cls-62,.cls-65,.cls-81,.cls-89,.cls-97{isolation:isolate;}.cls-18{fill:#f3757c;}.cls-19{fill:#c1a4ff;}.cls-20{fill:#85cff3;}.cls-21{fill:#eaf2ff;}.cls-22{fill:#f2f4ff;}.cls-23{fill:#ff9190;}.cls-23,.cls-33,.cls-42,.cls-45{opacity:0.1;}.cls-24{fill:url(#linear-gradient-9);}.cls-25{fill:#80ddd0;}.cls-26{fill:#e6f8f6;}.cls-27{mask:url(#mask-11);}.cls-28{fill:#fd9fb1;}.cls-102,.cls-110,.cls-28,.cls-29,.cls-53,.cls-62,.cls-89{opacity:0.2;}.cls-29{fill:#a575f3;}.cls-30{fill:#f091a0;}.cls-103,.cls-30,.cls-37,.cls-59,.cls-65,.cls-79,.cls-81{opacity:0.3;}.cls-31{mask:url(#mask-12);}.cls-32{fill:#47b3c0;}.cls-33{fill:#50b9bd;}.cls-34{fill:#a3dad8;}.cls-35{fill:#59beb9;}.cls-36{fill:#daf0f2;}.cls-37{fill:#8e7dfd;}.cls-38{fill:url(#linear-gradient-10);}.cls-39{fill:url(#linear-gradient-11);}.cls-40{fill:url(#linear-gradient-12);}.cls-41{fill:#e4bff1;}.cls-42,.cls-53,.cls-65{fill:#373a5b;}.cls-43{fill:#f9b9bd;}.cls-44{fill:#f3747b;}.cls-45{fill:url(#linear-gradient-13);}.cls-46{fill:url(#linear-gradient-14);}.cls-47{fill:#ff769a;}.cls-48{fill:#eae8e9;}.cls-49{fill:url(#linear-gradient-15);}.cls-50{fill:url(#linear-gradient-16);}.cls-51{fill:url(#linear-gradient-17);}.cls-52{mask:url(#mask-17);}.cls-54{fill:url(#linear-gradient-18);}.cls-55{mask:url(#mask-18);}.cls-56{fill:url(#linear-gradient-19);}.cls-57{fill:url(#linear-gradient-20);}.cls-58{mask:url(#mask-19);}.cls-59{fill:#151731;}.cls-60{fill:url(#linear-gradient-21);}.cls-61{mask:url(#mask-21);}.cls-62{fill:#da433d;}.cls-63{fill:url(#linear-gradient-22);}.cls-64{mask:url(#mask-22);}.cls-66{mask:url(#mask-23);}.cls-67{fill:url(#linear-gradient-23);}.cls-68{mask:url(#mask-25);}.cls-69{clip-path:url(#clip-path);}.cls-70{fill:url(#linear-gradient-24);}.cls-71{clip-path:url(#clip-path-2);}.cls-72{fill:url(#linear-gradient-26);}.cls-73{fill:url(#linear-gradient-27);}.cls-74{mask:url(#mask-26);}.cls-75{mask:url(#mask-27);}.cls-76{fill:url(#linear-gradient-28);}.cls-77{mask:url(#mask-28);}.cls-78{mask:url(#mask-29);}.cls-80{mask:url(#mask-30);}.cls-82{mask:url(#mask-31);}.cls-83{fill:#ffd5d7;}.cls-84{fill:url(#linear-gradient-29);}.cls-85{fill:url(#linear-gradient-30);}.cls-86{fill:url(#linear-gradient-31);}.cls-87{fill:url(#linear-gradient-32);}.cls-88{mask:url(#mask-32);}.cls-89{fill:#f3f4ff;}.cls-90{fill:url(#linear-gradient-33);}.cls-91{mask:url(#mask-33);}.cls-92{fill:url(#linear-gradient-34);}.cls-93{mask:url(#mask-34);}.cls-94{mask:url(#mask-35);}.cls-95{fill:url(#linear-gradient-35);}.cls-96{mask:url(#mask-36);}.cls-97{opacity:0.12;}.cls-98{mask:url(#mask-37);}.cls-99{fill:url(#linear-gradient-36);}.cls-100{fill:#ffccb5;}.cls-101{mask:url(#mask-39);}.cls-103{fill:#923e5a;}.cls-104{mask:url(#mask-41);}.cls-105{mask:url(#mask-42);}.cls-106{mask:url(#mask-44);}.cls-107{fill:url(#linear-gradient-37);}.cls-108{fill:url(#linear-gradient-38);}.cls-109{mask:url(#mask-48);}.cls-110{fill:#50211f;}.cls-111{fill:url(#linear-gradient-39);}.cls-112{mask:url(#mask-49);}.cls-113{fill:url(#linear-gradient-40);}.cls-114{mask:url(#mask-50);}.cls-115{fill:url(#linear-gradient-41);}.cls-116{mask:url(#mask-51);}.cls-117{mask:url(#mask-52);}.cls-118{fill:url(#linear-gradient-42);}.cls-119{fill:url(#linear-gradient-43);}.cls-120{fill:url(#linear-gradient-44);}.cls-121{opacity:0.3;}.cls-122{fill:#e6e6e6;}.cls-123{fill:url(#linear-gradient-45);}.cls-124{fill:url(#linear-gradient-46);}.cls-125{fill:#4d4d4d;}.cls-126{fill:url(#linear-gradient-47);}.cls-127{fill:url(#linear-gradient-48);}.cls-128{fill:url(#linear-gradient-49);}.cls-129{opacity:0.5;}.cls-130{fill:url(#linear-gradient-50);}.cls-131{fill:url(#linear-gradient-51);}.cls-132{fill:#fdc8ff;}</style><linearGradient id="linear-gradient" x1="350.73" y1="547.59" x2="387.62" y2="547.59" gradientUnits="userSpaceOnUse"><stop offset="0" stop-color="#404683"/><stop offset="1" stop-color="#373a5b"/></linearGradient><linearGradient id="linear-gradient-2" x1="-3097.99" y1="1038.13" x2="-2315.43" y2="1038.13" gradientTransform="matrix(1, -0.01, -0.01, -1, 3109.71, 1333.35)" gradientUnits="userSpaceOnUse"><stop offset="0" stop-color="#f5f6f7" stop-opacity="0.5"/><stop offset="1" stop-color="#f5f6f7"/></linearGradient><linearGradient id="linear-gradient-3" x1="650.97" y1="343.36" x2="761.46" y2="343.36" gradientUnits="userSpaceOnUse"><stop offset="0" stop-color="#ffcfaa"/><stop offset="1" stop-color="#fa6eb9" stop-opacity="0.6"/></linearGradient><linearGradient id="linear-gradient-4" x1="688.29" y1="430.69" x2="724.31" y2="395.76" xlink:href="#linear-gradient-3"/><linearGradient id="linear-gradient-5" x1="676" y1="372.54" x2="797.41" y2="372.54" gradientUnits="userSpaceOnUse"><stop offset="0" stop-color="#0cac9d"/><stop offset="1" stop-color="#009be0"/></linearGradient><linearGradient id="linear-gradient-6" x1="615" y1="65.5" x2="672" y2="65.5" gradientUnits="userSpaceOnUse"><stop offset="0" stop-color="#ffb782"/><stop offset="1" stop-color="#eb4878"/></linearGradient><linearGradient id="linear-gradient-7" x1="-4722.96" y1="535.53" x2="-4722.25" y2="536.6" gradientTransform="matrix(552, 0, 0, -376, 2607332.91, 201826)" gradientUnits="userSpaceOnUse"><stop offset="0" stop-color="#fcefff"/><stop offset="1" stop-color="#c9e7ff"/></linearGradient><mask id="mask" x="120.6" y="89.27" width="608.4" height="414.42" maskUnits="userSpaceOnUse"><g id="mask-3"><path id="path-2" class="cls-1" d="M133.82,89.27h582A13.22,13.22,0,0,1,729,102.49v388a13.23,13.23,0,0,1-13.23,13.23H133.82a13.23,13.23,0,0,1-13.22-13.23v-388A13.22,13.22,0,0,1,133.82,89.27Z"/></g></mask><linearGradient id="linear-gradient-8" x1="-4679.01" y1="535.39" x2="-4678.31" y2="536.46" gradientTransform="matrix(92, 0, 0, -345, 430612.91, 185179)" xlink:href="#linear-gradient-7"/><linearGradient id="linear-gradient-9" x1="-4679.58" y1="397.22" x2="-4680.51" y2="395.93" gradientTransform="matrix(43.78, 0, 0, -21.26, 205115.35, 8668.54)" gradientUnits="userSpaceOnUse"><stop offset="0" stop-color="#ffb782"/><stop offset="1" stop-color="#ff739c"/></linearGradient><mask id="mask-11" x="409.6" y="151.27" width="160" height="160" maskUnits="userSpaceOnUse"><g id="mask-2-2" data-name="mask-2"><path id="path-1" class="cls-1" d="M417.6,151.27h134a8,8,0,0,1,8,8v144a8,8,0,0,1-8,8h-134a8,8,0,0,1-8-8v-144A8,8,0,0,1,417.6,151.27Z"/></g></mask><mask id="mask-12" x="409.6" y="151.27" width="150" height="160" maskUnits="userSpaceOnUse"><g id="mask-2-3" data-name="mask-2"><path id="path-1-2" data-name="path-1" class="cls-1" d="M417.6,151.27h134a8,8,0,0,1,8,8v144a8,8,0,0,1-8,8h-134a8,8,0,0,1-8-8v-144A8,8,0,0,1,417.6,151.27Z"/></g></mask><linearGradient id="linear-gradient-10" x1="-4656.05" y1="364.52" x2="-4656.66" y2="363.52" gradientTransform="matrix(69.04, 16.55, 13.05, -54.46, 317379.93, 97365.32)" xlink:href="#linear-gradient-6"/><linearGradient id="linear-gradient-11" x1="-4665.73" y1="358.64" x2="-4666.06" y2="357.1" gradientTransform="matrix(79.03, 18.94, 9.09, -37.93, 366121.01, 102458.55)" gradientUnits="userSpaceOnUse"><stop offset="0" stop-color="#ffc5a2"/><stop offset="1" stop-color="#fa96b9" stop-opacity="0.51"/></linearGradient><linearGradient id="linear-gradient-12" x1="-4636.36" y1="368.31" x2="-4635.32" y2="369.63" gradientTransform="matrix(52, 0, 0, -52, 241332.37, 19354.75)" gradientUnits="userSpaceOnUse"><stop offset="0" stop-color="#ff90d7"/><stop offset="1" stop-color="#906efa"/></linearGradient><linearGradient id="linear-gradient-13" x1="-4748.14" y1="412.53" x2="-4748.95" y2="411.51" gradientTransform="matrix(117.74, 0, 0, -64, 559423.97, 26738)" xlink:href="#linear-gradient-12"/><linearGradient id="linear-gradient-14" x1="-4749.07" y1="406.33" x2="-4748.09" y2="407.6" gradientTransform="matrix(117.74, 0, 0, -44, 559423.97, 18298)" gradientUnits="userSpaceOnUse"><stop offset="0" stop-color="#ffcfaa"/><stop offset="1" stop-color="#fa6eb9"/></linearGradient><linearGradient id="linear-gradient-15" x1="-4454.27" y1="1149.63" x2="-4453.49" y2="1150.5" gradientTransform="matrix(26.68, 0, 0, -36.1, 119510.21, 41788.32)" gradientUnits="userSpaceOnUse"><stop offset="0" stop-color="#ff9292"/><stop offset="1" stop-color="#ffb59d"/></linearGradient><linearGradient id="linear-gradient-16" x1="-4504.76" y1="1146.11" x2="-4503.83" y2="1146.89" gradientTransform="matrix(35.89, 0, 0, -32.7, 162362.14, 37739.49)" gradientUnits="userSpaceOnUse"><stop offset="0" stop-color="#321847"/><stop offset="1" stop-color="#834a88"/></linearGradient><linearGradient id="linear-gradient-17" x1="-4525.94" y1="1103.59" x2="-4525.09" y2="1101.93" gradientTransform="matrix(41.82, 0, 0, -15.87, 189895.71, 18031.5)" gradientUnits="userSpaceOnUse"><stop offset="0" stop-color="#ce8ba0"/><stop offset="1" stop-color="#875151"/></linearGradient><mask id="mask-17" x="624.2" y="529.32" width="41.82" height="15.89" maskUnits="userSpaceOnUse"><g id="mask-5-2" data-name="mask-5"><path id="path-4" class="cls-1" d="M646.57,529.32q-1.82,7.38-12.8,7.93t-9.37,7.94h36.74q6.06,0,4.59-4.42l-3-11.45Z"/></g></mask><linearGradient id="linear-gradient-18" x1="-4808.93" y1="1103.57" x2="-4808.08" y2="1101.91" gradientTransform="translate(-161049.39 18031.5) rotate(180) scale(33.64 15.87)" xlink:href="#linear-gradient-17"/><mask id="mask-18" x="697.79" y="529.32" width="33.64" height="15.89" maskUnits="userSpaceOnUse"><g id="mask-7-2" data-name="mask-7"><path id="path-6" class="cls-1" d="M707.8,529.32a25.3,25.3,0,0,1-7.11,7.93c-4.66,3.52-2.89,7.94-.34,7.94h26.21q6,0,4.59-4.42l-7.22-11.45Z"/></g></mask><linearGradient id="linear-gradient-19" x1="-4869.46" y1="1098.18" x2="-4868.67" y2="1099.05" gradientTransform="translate(-117384.68 17053.58) rotate(180) scale(24.26 15.19)" xlink:href="#linear-gradient-15"/><linearGradient id="linear-gradient-20" x1="-4586.06" y1="1179.84" x2="-4587.34" y2="1178.99" gradientTransform="matrix(81.59, 0, 0, -166.46, 374938.24, 196773.15)" xlink:href="#linear-gradient"/><mask id="mask-19" x="643.78" y="364.18" width="81.59" height="166.46" maskUnits="userSpaceOnUse"><g id="mask-12-2" data-name="mask-12"><path id="path-11" class="cls-1" d="M666.64,364.18C654,424.45,658.28,420.83,652,457.54c-1.42,8.24-.68,17.8-2.35,26.06-2.65,13.15-1.08,24.39-4.35,37.58-.78,3.13-3.22,8,.71,8.89s15.57.51,18.13.51,1.19-5.3,2.18-7.9q9.69-25.3,10.94-45.89Q678.65,453,690.27,409q9.09,36.78,9.09,65.89c0,14.77,2.36,31.26,4,44.78.42,3.51-2.35,9.83,1.59,10.43s14,.6,16.71.51,2-8.38,3.42-17.44-2.57-29.12-1.47-61.84q1.1-32.7-6-85.72Z"/></g></mask><linearGradient id="linear-gradient-21" x1="-4338.9" y1="1118.01" x2="-4338.12" y2="1118.88" gradientTransform="matrix(16.85, 0, 0, -19.56, 73772.71, 22273.89)" xlink:href="#linear-gradient-15"/><mask id="mask-21" x="657.81" y="380.93" width="18" height="19.56" maskUnits="userSpaceOnUse"><g id="mask-14-2" data-name="mask-14"><path id="path-13" class="cls-1" d="M663.24,382.07q-6.74,8.35-5.12,12.53c1.62,4.17,9.71,9.14,13.78,3.06,1.87-2.79-3.89-1.08-2.82-2.29s1.24-.89,3.56-3.43c3-3.32,1.05-5,1.88-7.89Q675.93,379.06,663.24,382.07Z"/></g></mask><linearGradient id="linear-gradient-22" x1="-4597.34" y1="1175.01" x2="-4596.98" y2="1175.92" gradientTransform="matrix(97.04, 0, 0, -111.12, 446793.85, 130935.76)" gradientUnits="userSpaceOnUse"><stop offset="0" stop-color="#5d63d3"/><stop offset="1" stop-color="#b986ff"/></linearGradient><mask id="mask-22" x="662.07" y="271.56" width="97.04" height="113.92" maskUnits="userSpaceOnUse"><g id="mask-17-2" data-name="mask-17"><path id="path-16" class="cls-1" d="M674.65,277.6c7.18-2.3,24.71-4.94,41.94-1.78a22.81,22.81,0,0,1,13.25,7.36c16.41,17,23.1,30.91,27.26,36q4.15,5.1-.33,11c-7.86,11.41-13.36,20.11-23.17,30-.56.56-1.46,2.8-3,3.6q-5.85,0-10.21-9,14.14-22.35,18.38-27.7a154.07,154.07,0,0,0-17.56-15.87q-3.54,27.58-3.57,36c0,8.24,1.52,15.58,1.49,16.56-.09,3,3,8.35-8.54,8.35s-16.71-1.54-28.26-1.54c-1.18,0-3.56,14.92-6.8,14.92q-7.72,0-12.84-3.82c-2.57-1,3.81-23.39,3.81-57.42l-1.22-32.18C664.3,282.12,669.85,279.13,674.65,277.6Z"/></g></mask><mask id="mask-23" x="662.07" y="274.36" width="97.04" height="111.12" maskUnits="userSpaceOnUse"><g id="mask-17-3" data-name="mask-17"><path id="path-16-2" data-name="path-16" class="cls-1" d="M674.65,277.6c7.18-2.3,24.71-4.94,41.94-1.78a22.81,22.81,0,0,1,13.25,7.36c16.41,17,23.1,30.91,27.26,36q4.15,5.1-.33,11c-7.86,11.41-13.36,20.11-23.17,30-.56.56-1.46,2.8-3,3.6q-5.85,0-10.21-9,14.14-22.35,18.38-27.7a154.07,154.07,0,0,0-17.56-15.87q-3.54,27.58-3.57,36c0,8.24,1.52,15.58,1.49,16.56-.09,3,3,8.35-8.54,8.35s-16.71-1.54-28.26-1.54c-1.18,0-3.56,14.92-6.8,14.92q-7.72,0-12.84-3.82c-2.57-1,3.81-23.39,3.81-57.42l-1.22-32.18C664.3,282.12,669.85,279.13,674.65,277.6Z"/></g></mask><linearGradient id="linear-gradient-23" x1="-4569.39" y1="1162.2" x2="-4569.39" y2="1161.2" gradientTransform="matrix(64.24, 0, 0, -52.27, 294230.36, 61103.04)" gradientUnits="userSpaceOnUse"><stop offset="0" stop-color="#a3eded"/><stop offset="1" stop-color="#9fcfff"/></linearGradient><mask id="mask-25" x="639.97" y="350.25" width="64.24" height="52.27" maskUnits="userSpaceOnUse"><g id="mask-20-2" data-name="mask-20"><path id="path-19" class="cls-1" d="M668.47,395.64q4.72-4,5.39-5.35c.45-.91.52-2.52.24-4.81q2.64.4,4.08-3.06t5.91-24.21l20.12,5.13-11.94,39.18ZM665,353.74q-3.26,27.19-1.74,28.32-5.24,6.57-5.43,10.85L640,388.31l9.71-38.06Z"/></g></mask><clipPath id="clip-path"><path class="cls-2" d="M419.58,539.66q-.87.68,7.88,5.61A103,103,0,0,0,441,551.39c3.56,1.36,2.68,4.14-1.41,4.14H405c-4,0-5.57-1.48-4.59-4.42l3-11.45Z"/></clipPath><linearGradient id="linear-gradient-24" x1="381.31" y1="530.14" x2="432.35" y2="544.82" gradientTransform="matrix(1, 0, 0, 1, 0, 0)" xlink:href="#linear-gradient-15"/><clipPath id="clip-path-2"><path class="cls-3" d="M374.37,539.66a85.07,85.07,0,0,0,10.85,10.24c4.66,3.52,1.55,5.63-1,5.63H355.61c-4,0-5.57-1.48-4.59-4.42l7.22-11.45Z"/></clipPath><linearGradient id="linear-gradient-26" x1="336.13" y1="529.66" x2="387.18" y2="544.33" gradientTransform="matrix(1, 0, 0, 1, 0, 0)" xlink:href="#linear-gradient-15"/><linearGradient id="linear-gradient-27" x1="-4577.69" y1="1179.99" x2="-4578.97" y2="1179.13" gradientTransform="matrix(68.31, 0, 0, -169.34, 313158.54, 200189.64)" xlink:href="#linear-gradient"/><mask id="mask-26" x="356.82" y="371.77" width="68.31" height="169.34" maskUnits="userSpaceOnUse"><g id="mask-8-2" data-name="mask-8"><path id="path-7" class="cls-1" d="M369.13,371.77c-10,19.32-3.38,53-4,86.52-.52,27.73-7,60.32-7.5,66.85-.26,3.6-2.48,15,1.88,15.46s12.45.5,15,.5,4.09-14.15,4.64-17.43c.83-5,4.29-28.12,8.4-53.54q2.49-15.37,8.3-49.42,8.4,90.74,6.56,108.72c-.36,3.53-1.54,11.17.41,11.17s15.25.5,16.72.5,1-8.37,2.41-17.43c.53-3.46,3.25-23.22,3.2-55.73,0-19.46.05-42.34-3.2-71.85q-.76-7-3.41-20Z"/></g></mask><mask id="mask-27" x="352.49" y="368.19" width="79.5" height="172.92" maskUnits="userSpaceOnUse"><g id="mask-8-3" data-name="mask-8"><path id="path-7-2" data-name="path-7" class="cls-1" d="M369.13,371.77c-10,19.32-3.38,53-4,86.52-.52,27.73-7,60.32-7.5,66.85-.26,3.6-2.48,15,1.88,15.46s12.45.5,15,.5,4.09-14.15,4.64-17.43c.83-5,4.29-28.12,8.4-53.54q2.49-15.37,8.3-49.42,8.4,90.74,6.56,108.72c-.36,3.53-1.54,11.17.41,11.17s15.25.5,16.72.5,1-8.37,2.41-17.43c.53-3.46,3.25-23.22,3.2-55.73,0-19.46.05-42.34-3.2-71.85q-.76-7-3.41-20Z"/></g></mask><linearGradient id="linear-gradient-28" x1="-4604.44" y1="1175.18" x2="-4603.46" y2="1176.45" gradientTransform="matrix(104.71, 0, 0, -117.1, 482482.7, 138049.88)" xlink:href="#linear-gradient-14"/><mask id="mask-28" x="346.82" y="284.14" width="112" height="117.1" maskUnits="userSpaceOnUse"><g id="mask-11-2" data-name="mask-11"><path id="path-10" class="cls-1" d="M401.58,293.09c-14-3.9,2.07-.69-14.63,1A36.21,36.21,0,0,0,368.68,301C355.51,312,345.52,332.19,347,343.39q1.44,11.21,25.16,8.27c0,8.24-11.4,26.37-11.4,48.18.68.07,32.58,5.25,56.36-4.75q1.5-.63,1.05-19,2.79,21,5.31,21.05c.75,0-1.88-15.12-2.94-23.05a187.32,187.32,0,0,1-2-27q0-8,4.9-28.2,19.57-15.31,26.14-23.32t-8.82-11.43Q415.61,297,401.58,293.09Z"/></g></mask><mask id="mask-29" x="339.13" y="284.14" width="112.41" height="117.1" maskUnits="userSpaceOnUse"><g id="mask-11-3" data-name="mask-11"><path id="path-10-2" data-name="path-10" class="cls-1" d="M401.58,293.09c-14-3.9,2.07-.69-14.63,1A36.21,36.21,0,0,0,368.68,301C355.51,312,345.52,332.19,347,343.39q1.44,11.21,25.16,8.27c0,8.24-11.4,26.37-11.4,48.18.68.07,32.58,5.25,56.36-4.75q1.5-.63,1.05-19,2.79,21,5.31,21.05c.75,0-1.88-15.12-2.94-23.05a187.32,187.32,0,0,1-2-27q0-8,4.9-28.2,19.57-15.31,26.14-23.32t-8.82-11.43Q415.61,297,401.58,293.09Z"/></g></mask><mask id="mask-30" x="346.82" y="284.14" width="104.71" height="117.1" maskUnits="userSpaceOnUse"><g id="mask-11-4" data-name="mask-11"><path id="path-10-3" data-name="path-10" class="cls-1" d="M401.58,293.09c-14-3.9,2.07-.69-14.63,1A36.21,36.21,0,0,0,368.68,301C355.51,312,345.52,332.19,347,343.39q1.44,11.21,25.16,8.27c0,8.24-11.4,26.37-11.4,48.18.68.07,32.58,5.25,56.36-4.75q1.5-.63,1.05-19,2.79,21,5.31,21.05c.75,0-1.88-15.12-2.94-23.05a187.32,187.32,0,0,1-2-27q0-8,4.9-28.2,19.57-15.31,26.14-23.32t-8.82-11.43Q415.61,297,401.58,293.09Z"/></g></mask><mask id="mask-31" x="341.33" y="284.14" width="110.2" height="117.1" maskUnits="userSpaceOnUse"><g id="mask-11-5" data-name="mask-11"><path id="path-10-4" data-name="path-10" class="cls-1" d="M401.58,293.09c-14-3.9,2.07-.69-14.63,1A36.21,36.21,0,0,0,368.68,301C355.51,312,345.52,332.19,347,343.39q1.44,11.21,25.16,8.27c0,8.24-11.4,26.37-11.4,48.18.68.07,32.58,5.25,56.36-4.75q1.5-.63,1.05-19,2.79,21,5.31,21.05c.75,0-1.88-15.12-2.94-23.05a187.32,187.32,0,0,1-2-27q0-8,4.9-28.2,19.57-15.31,26.14-23.32t-8.82-11.43Q415.61,297,401.58,293.09Z"/></g></mask><linearGradient id="linear-gradient-29" x1="-4514.39" y1="1163.64" x2="-4513.6" y2="1164.51" gradientTransform="matrix(36.26, 0, 0, -58, 164139.05, 67798.07)" xlink:href="#linear-gradient-15"/><linearGradient id="linear-gradient-30" x1="-4439.95" y1="1154.04" x2="-4439.16" y2="1154.91" gradientTransform="matrix(23.54, 0, 0, -41.21, 104927.01, 47863.06)" xlink:href="#linear-gradient-15"/><linearGradient id="linear-gradient-31" x1="-4582.95" y1="1174.28" x2="-4582.95" y2="1173.28" gradientTransform="matrix(72.79, 0, 0, -98.58, 333958.23, 116011.02)" gradientUnits="userSpaceOnUse"><stop offset="0" stop-color="#af3053"/><stop offset="1" stop-color="#7a3343"/></linearGradient><linearGradient id="linear-gradient-32" x1="-4764.9" y1="1103.68" x2="-4766.17" y2="1102.83" gradientTransform="translate(-199089.14 18035.12) rotate(180) scale(41.82 15.87)" xlink:href="#linear-gradient"/><mask id="mask-32" x="187.29" y="520.67" width="52.08" height="16.17" maskUnits="userSpaceOnUse"><g id="mask-3-12" data-name="mask-3"><path id="path-2-11" data-name="path-2" class="cls-1" d="M215.15,520.67q-2.25,7.38-15.94,7.94t-11.66,7.93H233.3q7.53,0,5.71-4.42l-3.77-11.45Z"/></g></mask><linearGradient id="linear-gradient-33" x1="-4792.7" y1="1103.74" x2="-4793.97" y2="1102.89" gradientTransform="translate(-161106.29 18035.12) rotate(180) scale(33.64 15.87)" xlink:href="#linear-gradient"/><mask id="mask-33" x="138.15" y="520.67" width="41.07" height="16.17" maskUnits="userSpaceOnUse"><g id="mask-5-3" data-name="mask-5"><path id="path-4-2" data-name="path-4" class="cls-1" d="M150.37,520.67a28.16,28.16,0,0,1-8.68,7.94c-5.7,3.51-3.53,7.93-.41,7.93h32q7.4,0,5.6-4.42l-8.81-11.45Z"/></g></mask><linearGradient id="linear-gradient-34" x1="-4585.43" y1="1179.94" x2="-4585.43" y2="1178.94" gradientTransform="matrix(72.3, 0, 0, -165.7, 331689.19, 195866.51)" xlink:href="#linear-gradient-31"/><mask id="mask-34" x="129.53" y="356.3" width="87.36" height="165.7" maskUnits="userSpaceOnUse"><g id="mask-8-4" data-name="mask-8"><path id="path-7-3" data-name="path-7" class="cls-1" d="M146.79,356.3c-6.17,42.74,2.89,60.41,0,98-.67,8.67,0,41.63.83,58.21.18,3.58-2.22,8,1.71,8.88s15.57.51,18.13.51,1.18-4.43,1.18-7.89c0-26.13,4-27.76,3.11-41.48q-1.6-26,8-72.24a320.41,320.41,0,0,0,9.34,46.35c3.49,12.44.25,28.29,3.25,52.44.43,3.5-1.05,21.21,2.89,21.81s14,.6,16.72.5,2.33-10.78,4.13-22.31,0-38.21,0-52.44q0-14.24-13.47-90.37Z"/></g></mask><mask id="mask-35" x="144.59" y="356.3" width="72.3" height="165.7" maskUnits="userSpaceOnUse"><g id="mask-8-5" data-name="mask-8"><path id="path-7-4" data-name="path-7" class="cls-1" d="M146.79,356.3c-6.17,42.74,2.89,60.41,0,98-.67,8.67,0,41.63.83,58.21.18,3.58-2.22,8,1.71,8.88s15.57.51,18.13.51,1.18-4.43,1.18-7.89c0-26.13,4-27.76,3.11-41.48q-1.6-26,8-72.24a320.41,320.41,0,0,0,9.34,46.35c3.49,12.44.25,28.29,3.25,52.44.43,3.5-1.05,21.21,2.89,21.81s14,.6,16.72.5,2.33-10.78,4.13-22.31,0-38.21,0-52.44q0-14.24-13.47-90.37Z"/></g></mask><linearGradient id="linear-gradient-35" x1="-4611.78" y1="1174.61" x2="-4612.39" y2="1173.61" gradientTransform="matrix(120.83, 0, 0, -99.89, 557456.45, 117599.73)" xlink:href="#linear-gradient-6"/><mask id="mask-36" x="125.09" y="264.07" width="120.83" height="107.28" maskUnits="userSpaceOnUse"><g id="mask-11-6" data-name="mask-11"><path id="path-10-5" data-name="path-10" class="cls-1" d="M187.72,266.92c-7.19-2.3-20.94-4.37-37.44-1.33-7.85,1.45-13.19,7.75-16.24,15-10.37,24.74-13.89,51.72,1.3,51.72h9.25q-.39,21.76-.36,22.75c.09,3-1.06,6.54,7,7.82s32.17,1.28,40.09.53,15.86-1.69,12.15-9.94q-3.7-8.26-4.4-37.69l15,8.9q8.4,2.63,12.64-3.17t19.14-33.65q0-6.69-11.3-6l-17.06,21.67-18.47-28.11A21,21,0,0,0,187.72,266.92Z"/></g></mask><mask id="mask-37" x="125.09" y="264.07" width="120.83" height="99.89" maskUnits="userSpaceOnUse"><g id="mask-11-7" data-name="mask-11"><path id="path-10-6" data-name="path-10" class="cls-1" d="M187.72,266.92c-7.19-2.3-20.94-4.37-37.44-1.33-7.85,1.45-13.19,7.75-16.24,15-10.37,24.74-13.89,51.72,1.3,51.72h9.25q-.39,21.76-.36,22.75c.09,3-1.06,6.54,7,7.82s32.17,1.28,40.09.53,15.86-1.69,12.15-9.94q-3.7-8.26-4.4-37.69l15,8.9q8.4,2.63,12.64-3.17t19.14-33.65q0-6.69-11.3-6l-17.06,21.67-18.47-28.11A21,21,0,0,0,187.72,266.92Z"/></g></mask><linearGradient id="linear-gradient-36" x1="-4380.65" y1="1169.74" x2="-4379.72" y2="1170.53" gradientTransform="matrix(17.62, 0, 0, -76, 77359.46, 89224.64)" xlink:href="#linear-gradient-16"/><mask id="mask-39" x="125.09" y="264.07" width="124.01" height="99.89" maskUnits="userSpaceOnUse"><g id="mask-11-9" data-name="mask-11"><path id="path-10-8" data-name="path-10" class="cls-1" d="M187.72,266.92c-7.19-2.3-20.94-4.37-37.44-1.33-7.85,1.45-13.19,7.75-16.24,15-10.37,24.74-13.89,51.72,1.3,51.72h9.25q-.39,21.76-.36,22.75c.09,3-1.06,6.54,7,7.82s32.17,1.28,40.09.53,15.86-1.69,12.15-9.94q-3.7-8.26-4.4-37.69l15,8.9q8.4,2.63,12.64-3.17t19.14-33.65q0-6.69-11.3-6l-17.06,21.67-18.47-28.11A21,21,0,0,0,187.72,266.92Z"/></g></mask><mask id="mask-41" x="125.09" y="262.33" width="120.83" height="101.63" maskUnits="userSpaceOnUse"><g id="mask-11-11" data-name="mask-11"><path id="path-10-10" data-name="path-10" class="cls-1" d="M187.72,266.92c-7.19-2.3-20.94-4.37-37.44-1.33-7.85,1.45-13.19,7.75-16.24,15-10.37,24.74-13.89,51.72,1.3,51.72h9.25q-.39,21.76-.36,22.75c.09,3-1.06,6.54,7,7.82s32.17,1.28,40.09.53,15.86-1.69,12.15-9.94q-3.7-8.26-4.4-37.69l15,8.9q8.4,2.63,12.64-3.17t19.14-33.65q0-6.69-11.3-6l-17.06,21.67-18.47-28.11A21,21,0,0,0,187.72,266.92Z"/></g></mask><mask id="mask-42" x="125.09" y="258.31" width="120.83" height="105.65" maskUnits="userSpaceOnUse"><g id="mask-11-12" data-name="mask-11"><path id="path-10-11" data-name="path-10" class="cls-1" d="M187.72,266.92c-7.19-2.3-20.94-4.37-37.44-1.33-7.85,1.45-13.19,7.75-16.24,15-10.37,24.74-13.89,51.72,1.3,51.72h9.25q-.39,21.76-.36,22.75c.09,3-1.06,6.54,7,7.82s32.17,1.28,40.09.53,15.86-1.69,12.15-9.94q-3.7-8.26-4.4-37.69l15,8.9q8.4,2.63,12.64-3.17t19.14-33.65q0-6.69-11.3-6l-17.06,21.67-18.47-28.11A21,21,0,0,0,187.72,266.92Z"/></g></mask><mask id="mask-44" x="125.09" y="264.07" width="122.47" height="99.89" maskUnits="userSpaceOnUse"><g id="mask-11-14" data-name="mask-11"><path id="path-10-13" data-name="path-10" class="cls-1" d="M187.72,266.92c-7.19-2.3-20.94-4.37-37.44-1.33-7.85,1.45-13.19,7.75-16.24,15-10.37,24.74-13.89,51.72,1.3,51.72h9.25q-.39,21.76-.36,22.75c.09,3-1.06,6.54,7,7.82s32.17,1.28,40.09.53,15.86-1.69,12.15-9.94q-3.7-8.26-4.4-37.69l15,8.9q8.4,2.63,12.64-3.17t19.14-33.65q0-6.69-11.3-6l-17.06,21.67-18.47-28.11A21,21,0,0,0,187.72,266.92Z"/></g></mask><linearGradient id="linear-gradient-37" x1="-4476.37" y1="1140.89" x2="-4475.44" y2="1141.67" gradientTransform="matrix(27.23, 0, 0, -28.72, 122034.31, 33005.1)" xlink:href="#linear-gradient-16"/><linearGradient id="linear-gradient-38" x1="-4347.97" y1="1124.09" x2="-4347.19" y2="1124.96" gradientTransform="matrix(15.71, 0, 0, -21.25, 68470.82, 24161.53)" gradientUnits="userSpaceOnUse"><stop offset="0" stop-color="#843e3e"/><stop offset="1" stop-color="#7b4838"/></linearGradient><mask id="mask-48" x="160.09" y="251.45" width="22.38" height="21.25" maskUnits="userSpaceOnUse"><g id="mask-15-2" data-name="mask-15"><path id="path-14" class="cls-1" d="M160.09,264.37q10.18,8.34,12.21,8.33c1.35,0,2.51-2.77,3.5-8.33l-1.12-6.72-11.92-6.2Z"/></g></mask><linearGradient id="linear-gradient-39" x1="-4475.49" y1="1136.6" x2="-4474.7" y2="1137.48" gradientTransform="matrix(27.07, 0, 0, -26.55, 121290.25, 30437.54)" gradientUnits="userSpaceOnUse"><stop offset="0" stop-color="#843e3e"/><stop offset="1" stop-color="#c08775"/></linearGradient><mask id="mask-49" x="158.45" y="235.39" width="27.07" height="26.55" maskUnits="userSpaceOnUse"><g id="mask-18-2" data-name="mask-18"><path id="path-17" class="cls-1" d="M169.2,235.61c5.36,2,12.91,3.21,16.32,1-.65,16.88-3.38,25.33-7.71,25.33-6.49,0-13.58-3.32-15.21-10.3a1.74,1.74,0,0,1,0-.22,4.36,4.36,0,0,1-.51,0,3.59,3.59,0,1,1,3-5.58C165.39,246,163.83,233.61,169.2,235.61Z"/></g></mask><linearGradient id="linear-gradient-40" x1="-4238.74" y1="871.27" x2="-4237.81" y2="872.06" gradientTransform="matrix(11.57, 0, 0, -4.23, 49205.84, 3938.64)" xlink:href="#linear-gradient-16"/><mask id="mask-50" x="158.45" y="234.22" width="27.18" height="27.72" maskUnits="userSpaceOnUse"><g id="mask-18-3" data-name="mask-18"><path id="path-17-2" data-name="path-17" class="cls-1" d="M169.2,235.61c5.36,2,12.91,3.21,16.32,1-.65,16.88-3.38,25.33-7.71,25.33-6.49,0-13.58-3.32-15.21-10.3a1.74,1.74,0,0,1,0-.22,4.36,4.36,0,0,1-.51,0,3.59,3.59,0,1,1,3-5.58C165.39,246,163.83,233.61,169.2,235.61Z"/></g></mask><linearGradient id="linear-gradient-41" x1="-4352.92" y1="1128.09" x2="-4352.14" y2="1128.96" gradientTransform="matrix(15.97, 0, 0, -22.71, 69763.64, 25912.61)" gradientUnits="userSpaceOnUse"><stop offset="0" stop-color="#843e3e"/><stop offset="1" stop-color="#ef8a69"/></linearGradient><mask id="mask-51" x="234.58" y="267.59" width="15.98" height="24.13" maskUnits="userSpaceOnUse"><g id="mask-21-2" data-name="mask-21"><path id="path-20" class="cls-1" d="M239,274.58c2.23-2.65,0-7,2.46-7a3.42,3.42,0,0,1,2.25,2.33,10.46,10.46,0,0,1,0,3.54q4.92.48,6.08,1.87c1.22,1.46.71,7.35,0,9.29-1,2.71-2.27,2.71-5,3.56a17.9,17.9,0,0,0-3.86,2,4.07,4.07,0,0,1-3.56-1q-2-1.47-2.78-6.72A31.85,31.85,0,0,1,239,274.58Z"/></g></mask><mask id="mask-52" x="234.59" y="267.59" width="15.97" height="22.71" maskUnits="userSpaceOnUse"><g id="mask-21-3" data-name="mask-21"><path id="path-20-2" data-name="path-20" class="cls-1" d="M239,274.58c2.23-2.65,0-7,2.46-7a3.42,3.42,0,0,1,2.25,2.33,10.46,10.46,0,0,1,0,3.54q4.92.48,6.08,1.87c1.22,1.46.71,7.35,0,9.29-1,2.71-2.27,2.71-5,3.56a17.9,17.9,0,0,0-3.86,2,4.07,4.07,0,0,1-3.56-1q-2-1.47-2.78-6.72A31.85,31.85,0,0,1,239,274.58Z"/></g></mask><linearGradient id="linear-gradient-42" x1="-4536.78" y1="1157.67" x2="-4536.78" y2="1156.67" gradientTransform="matrix(41.63, 0, 0, -44.05, 189082.06, 51291.89)" xlink:href="#linear-gradient-23"/><linearGradient id="linear-gradient-43" x1="-4405.75" y1="1097.5" x2="-4404.97" y2="1098.37" gradientTransform="matrix(19.4, 0, 0, -14.93, 85628.9, 16720.85)" xlink:href="#linear-gradient-41"/><linearGradient id="linear-gradient-44" x1="40.54" y1="426.74" x2="94.63" y2="426.74" xlink:href="#linear-gradient-5"/><linearGradient id="linear-gradient-45" x1="80.22" y1="456.93" x2="129.14" y2="456.93" gradientUnits="userSpaceOnUse"><stop offset="0" stop-color="#3076a1"/><stop offset="1" stop-color="#639c38"/></linearGradient><linearGradient id="linear-gradient-46" x1="71.14" y1="434.5" x2="113.9" y2="434.5" xlink:href="#linear-gradient-5"/><linearGradient id="linear-gradient-47" x1="393" y1="81.5" x2="450" y2="81.5" gradientUnits="userSpaceOnUse"><stop offset="0" stop-color="#39abc5"/><stop offset="1" stop-color="#a8eb9d"/></linearGradient><linearGradient id="linear-gradient-48" x1="699.6" y1="182.19" x2="758.51" y2="182.19" gradientUnits="userSpaceOnUse"><stop offset="0" stop-color="#37cedb"/><stop offset="1" stop-color="#3488ed"/></linearGradient><linearGradient id="linear-gradient-49" x1="-4632.73" y1="366.1" x2="-4633.22" y2="365.09" gradientTransform="matrix(48.2, 0, 0, -43.2, 223362.42, 16026.37)" xlink:href="#linear-gradient-47"/><linearGradient id="linear-gradient-50" x1="-4636.57" y1="371.44" x2="-4637.02" y2="370.81" gradientTransform="matrix(52, 0, 0, -52, 241332.12, 19357.75)" gradientUnits="userSpaceOnUse"><stop offset="0" stop-color="#fff"/><stop offset="1" stop-color="#c2e7f9"/></linearGradient><linearGradient id="linear-gradient-51" x1="-4637.2" y1="353.29" x2="-4636.38" y2="354.36" gradientTransform="matrix(52, 0, 0, -14, 241332.12, 4993.75)" xlink:href="#linear-gradient-14"/></defs><path class="cls-4" d="M758.94,424.73C695.55,525.88,600.1,576.53,482.18,587.67c-161,15.22-143.52-117.24-307-117.48-145.41-.2-245.25-145-91.59-307.42C249.27-12.36,560.81-8,704.69,133.76,778.5,206.49,821.31,325.21,758.94,424.73Z"/><path class="cls-5" d="M651,397.05s9.31-44.48,33-82.69,59.49-58.81,75.32-34.18S697.67,349.7,684,417.24Z"/><path class="cls-6" d="M725.23,301.4C688.42,336.2,668.87,408,668.87,408"/><path class="cls-7" d="M682.9,409.26c20.67-10,24.56-36.84,44.41-34.79S734,429.32,700.15,441Z"/><path class="cls-6" d="M719.33,398s-9.42,19.61-27.43,27.82"/><path class="cls-8" d="M676,391.2c28-9.59,36.48-35.92,61.12-56.42s54.9-18.63,59.79-2.17-27.26,18.16-52.27,53.32S676,425.23,676,425.23Z"/><path class="cls-6" d="M676,408.12c34.22-8.65,53-46.63,87.44-64.87"/><path class="cls-9" d="M134.51,216c-2.16-4.54-4.38-9.3-4.25-14.33.11-4.66-.07-9.84,1.14-14.34a37.72,37.72,0,0,0,.93-13.88c-1.58-14.54-7.71-13.64-10-12.8s-3.51,3.05-4,6.78c-.42,3,.17,17.35-4.21,14.77-5.06-3-3.31-17.71-3.63-22.71-.47-7.48-2.65-15.65-7.73-21.35-2.5-2.81-6.38-5.08-9.92-3.79a8.75,8.75,0,0,0-4.57,4.73c-2.85,6.16-1.34,13,.54,19.23.78,2.59,8.1,15,1.18,13.1-1.66-.44-14.53-12.91-17.1-1.67-.9,4,3.15,8.55,9.72,14.45,4.11,3.68,19.68,13.8,18.38,18.15s-9.66-3.7-9.45,4.67c.11,4.7,5.84,8.67,9.78,10.85,1.87,1,3.94,1.7,5.75,2.85,2.13,1.38,4.61,4.41,2.6,6.91-.87,1.09-2.39,1.52-3.23,2.64a4,4,0,0,0-.17,4,9.21,9.21,0,0,0,2.83,3.13c7.22,5.54,16.8,7.33,25.86,6.5s17.73-4,26.08-7.68"/><g class="cls-10"><path class="cls-11" d="M96.38,142.55s4.24,49.33,30.41,82.56"/><path class="cls-11" d="M79.64,173s15,14.52,28.33,17.78"/><path class="cls-11" d="M124.18,167c.06,7.69-1.5,29-9.77,38.46"/><path class="cls-11" d="M97.38,209.25s5.86,6.25,25.53,10.6"/><path class="cls-11" d="M110.18,232s10.09,2.89,19.8-1.52"/></g><circle class="cls-12" cx="643.5" cy="65.5" r="28.5"/><g id="Desktop-browser"><g id="Path"><path class="cls-13" d="M133.82,89.27h582A13.22,13.22,0,0,1,729,102.49v388a13.23,13.23,0,0,1-13.23,13.23H133.82a13.23,13.23,0,0,1-13.22-13.23v-388A13.22,13.22,0,0,1,133.82,89.27Z"/></g><g class="cls-14"><path class="cls-15" d="M120.6,123.43H222V503.69H133.82a13.23,13.23,0,0,1-13.22-13.23Z"/></g><g class="cls-14"><path id="Oval" class="cls-16" d="M171.3,189.57A18.74,18.74,0,1,1,190,170.83,18.74,18.74,0,0,1,171.3,189.57Zm0-4.41A14.33,14.33,0,1,0,157,170.83,14.34,14.34,0,0,0,171.3,185.16Z"/></g><g class="cls-14"><path class="cls-17" d="M133.82,89.27h582A13.22,13.22,0,0,1,729,102.49v20.94H120.6V102.49A13.22,13.22,0,0,1,133.82,89.27Z"/></g><g class="cls-14"><circle class="cls-18" cx="141.54" cy="106.35" r="4.41"/></g><g class="cls-14"><circle id="Oval-Copy-69" class="cls-19" cx="158.07" cy="106.35" r="4.41"/></g><g class="cls-14"><circle id="Oval-Copy-70" class="cls-20" cx="174.61" cy="106.35" r="4.41"/></g><g class="cls-14"><path id="Path-162" class="cls-16" d="M161.52,215a2.21,2.21,0,0,1,0-4.41h19.55a2.21,2.21,0,1,1,0,4.41Z"/></g><g class="cls-14"><path id="Path-162-Copy-2" class="cls-16" d="M254.84,159.89a2.21,2.21,0,0,1,0-4.41h19.55a2.21,2.21,0,1,1,0,4.41Z"/></g><g class="cls-14"><path id="Path-162-Copy" class="cls-21" d="M150.5,226a2.21,2.21,0,0,1,0-4.41h41.6a2.21,2.21,0,0,1,0,4.41Z"/></g><g class="cls-14"><path id="Path-162-Copy-3" class="cls-22" d="M254.84,170.91a2.21,2.21,0,0,1,0-4.41h41.6a2.21,2.21,0,0,1,0,4.41Z"/></g></g><g id="UI-light-8"><path id="Path-2-12" data-name="Path" class="cls-16" d="M88.6,205.27h134a8,8,0,0,1,8,8v40a8,8,0,0,1-8,8H88.6a8,8,0,0,1-8-8v-40A8,8,0,0,1,88.6,205.27Z"/><g id="Group-53"><path id="Combined-Shape" class="cls-23" d="M186.42,218.41h4.32a2,2,0,0,1,2,2v26a2,2,0,0,1-2,2h-4.32a2,2,0,0,1-2-2v-26A2,2,0,0,1,186.42,218.41Zm11.82,0h4.32a2,2,0,0,1,2,2v26a2,2,0,0,1-2,2h-4.32a2,2,0,0,1-2-2v-26A2,2,0,0,1,198.24,218.41Zm11.82,0h4.32a2,2,0,0,1,2,2v26a2,2,0,0,1-2,2h-4.32a2,2,0,0,1-2-2v-26A2,2,0,0,1,210.06,218.41Zm-35.46,0h4.32a2,2,0,0,1,2,2v26a2,2,0,0,1-2,2H174.6a2,2,0,0,1-2-2v-26A2,2,0,0,1,174.6,218.41Z"/><path class="cls-24" d="M186.42,227.18h4.32a2,2,0,0,1,2,2v17.26a2,2,0,0,1-2,2h-4.32a2,2,0,0,1-2-2V229.18A2,2,0,0,1,186.42,227.18Zm-11.82,10h4.32a2,2,0,0,1,2,2v7.26a2,2,0,0,1-2,2H174.6a2,2,0,0,1-2-2v-7.26A2,2,0,0,1,174.6,237.18Zm23.64-4.7h4.32a2,2,0,0,1,2,2v12a2,2,0,0,1-2,2h-4.32a2,2,0,0,1-2-2v-12A2,2,0,0,1,198.24,232.48Zm11.82,10h4.32a2,2,0,0,1,2,2v2a2,2,0,0,1-2,2h-4.32a2,2,0,0,1-2-2v-2A2,2,0,0,1,210.06,242.48Z"/></g><path id="Path-162-Copy-2-2" data-name="Path-162-Copy-2" class="cls-25" d="M98.38,229.77a2,2,0,1,1,0-4h17.74a2,2,0,0,1,0,4Z"/><path id="Path-162-Copy-3-2" data-name="Path-162-Copy-3" class="cls-26" d="M98.38,239.77a2,2,0,1,1,0-4h37.74a2,2,0,0,1,0,4Z"/></g><g id="UI-light-14"><g id="Path-3" data-name="Path"><path class="cls-16" d="M417.6,151.27h134a8,8,0,0,1,8,8v144a8,8,0,0,1-8,8h-134a8,8,0,0,1-8-8v-144A8,8,0,0,1,417.6,151.27Z"/></g><g class="cls-27"><g id="Group-54"><path class="cls-28" d="M435.6,212.27h87a7,7,0,0,1,7,7v46a7,7,0,0,1-7,7h-87a7,7,0,0,1-7-7v-46A7,7,0,0,1,435.6,212.27Z"/><path class="cls-29" d="M545.6,212.27h17a7,7,0,0,1,7,7v46a7,7,0,0,1-7,7h-17a7,7,0,0,1-7-7v-46A7,7,0,0,1,545.6,212.27Z"/><path id="Combined-Shape-2" data-name="Combined-Shape" class="cls-30" d="M467.55,250.72l7.54-12.55,4.48,7,4.15-4.54,6.93,10.11ZM486,237.81a3,3,0,1,1,3-3A3,3,0,0,1,486,237.81Z"/></g></g><g class="cls-31"><path id="Path-162-Copy-2-3" data-name="Path-162-Copy-2" class="cls-32" d="M460.6,175.77a2,2,0,0,1,0-4h17.74a2,2,0,0,1,0,4Z"/></g><g class="cls-31"><g id="Group-37"><circle id="Oval-2" data-name="Oval" class="cls-33" cx="439.78" cy="178.65" r="11"/><path class="cls-34" d="M443.66,183a1,1,0,1,1-2,0,1.85,1.85,0,0,0-3.7,0,1,1,0,1,1-2,0,3.85,3.85,0,0,1,7.7,0Z"/><path class="cls-35" d="M439.81,181.11a3.77,3.77,0,1,1,3.85-3.77A3.81,3.81,0,0,1,439.81,181.11Zm0-2a1.77,1.77,0,1,0-1.85-1.77A1.82,1.82,0,0,0,439.81,179.11Z"/></g></g><g class="cls-31"><path id="Path-162-Copy-3-3" data-name="Path-162-Copy-3" class="cls-36" d="M460.6,185.77a2,2,0,0,1,0-4h37.74a2,2,0,0,1,0,4Z"/></g><g class="cls-31"><path id="Path-162-Copy-4" class="cls-37" d="M501.6,292.77a2,2,0,0,1,0-4h13.74a2,2,0,0,1,0,4Z"/></g><g class="cls-31"><path id="Path-162-Copy-5" class="cls-37" d="M531.6,292.77a2,2,0,0,1,0-4h13.74a2,2,0,0,1,0,4Z"/></g></g><g id="Folder-2"><path id="Path-4-3" data-name="Path" class="cls-38" d="M616.87,437l17.74,4.25A4,4,0,0,1,637.5,444l2.07,6.73a4,4,0,0,0,2.89,2.72l35.29,8.46a3,3,0,0,1,2.22,3.61l-9.33,38.9a3,3,0,0,1-3.61,2.22l-63.21-15.15a3,3,0,0,1-2.22-3.62l11.66-48.62A3,3,0,0,1,616.87,437Z"/><g id="Group-5-Copy"><path class="cls-16" d="M640.53,440.19l44.52,10.67a3,3,0,0,1,2.22,3.62,3.42,3.42,0,0,1-.29.75l-22.51,40.88a3,3,0,0,1-3.32,1.47l-44.52-10.67a3,3,0,0,1-1.93-4.37l22.5-40.88A3,3,0,0,1,640.53,440.19Z"/></g><path class="cls-39" d="M621.21,455.26l65,15.58a3,3,0,0,1,2.22,3.61,3.55,3.55,0,0,1-.26.71l-15.92,30.12a3,3,0,0,1-3.36,1.51l-65-15.57a3,3,0,0,1-1.95-4.32l15.92-30.12A3,3,0,0,1,621.21,455.26Z"/></g><g id="People-medium"><path id="Path-5" data-name="Path" class="cls-40" d="M252.6,137.27h40a6,6,0,0,1,6,6v40a6,6,0,0,1-6,6h-40a6,6,0,0,1-6-6v-40A6,6,0,0,1,252.6,137.27Z"/><path id="Path-130" class="cls-41" d="M267.85,177.11a.9.9,0,1,1,0-1.8h9.9a.9.9,0,1,1,0,1.8Z"/><circle id="Oval-Copy-57" class="cls-42" cx="272.8" cy="161.63" r="11"/><g id="Group-37-2" data-name="Group-37"><circle id="Oval-3" data-name="Oval" class="cls-16" cx="272.8" cy="158.63" r="11"/><path class="cls-43" d="M276.67,163a1,1,0,0,1-2,0,1.85,1.85,0,0,0-3.7,0,1,1,0,0,1-2,0,3.85,3.85,0,0,1,7.7,0Z"/><path class="cls-44" d="M272.82,161.09a3.78,3.78,0,1,1,3.85-3.78A3.82,3.82,0,0,1,272.82,161.09Zm0-2a1.78,1.78,0,1,0-1.85-1.78A1.81,1.81,0,0,0,272.82,159.09Z"/></g></g><g id="UI-light-3"><path id="Path-6-2" data-name="Path" class="cls-16" d="M268.6,327.27h134a8,8,0,0,1,8,8v118a8,8,0,0,1-8,8h-134a8,8,0,0,1-8-8v-118A8,8,0,0,1,268.6,327.27Z"/><path id="Combined-Shape-3" data-name="Combined-Shape" class="cls-45" d="M280.6,340.27h13.74a2,2,0,0,1,2,2v60a2,2,0,0,1-2,2H280.6a2,2,0,0,1-2-2v-60A2,2,0,0,1,280.6,340.27Zm25,0h13.74a2,2,0,0,1,2,2v60a2,2,0,0,1-2,2H305.6a2,2,0,0,1-2-2v-60A2,2,0,0,1,305.6,340.27Zm25,0h13.74a2,2,0,0,1,2,2v60a2,2,0,0,1-2,2H330.6a2,2,0,0,1-2-2v-60A2,2,0,0,1,330.6,340.27Zm25,0h13.74a2,2,0,0,1,2,2v60a2,2,0,0,1-2,2H355.6a2,2,0,0,1-2-2v-60A2,2,0,0,1,355.6,340.27Zm25,0h13.74a2,2,0,0,1,2,2v60a2,2,0,0,1-2,2H380.6a2,2,0,0,1-2-2v-60A2,2,0,0,1,380.6,340.27Z"/><path class="cls-46" d="M280.6,380.27h13.74a2,2,0,0,1,2,2v20a2,2,0,0,1-2,2H280.6a2,2,0,0,1-2-2v-20A2,2,0,0,1,280.6,380.27Zm25-10h13.74a2,2,0,0,1,2,2v30a2,2,0,0,1-2,2H305.6a2,2,0,0,1-2-2v-30A2,2,0,0,1,305.6,370.27Zm25,0h13.74a2,2,0,0,1,2,2v30a2,2,0,0,1-2,2H330.6a2,2,0,0,1-2-2v-30A2,2,0,0,1,330.6,370.27Zm25,20h13.74a2,2,0,0,1,2,2v10a2,2,0,0,1-2,2H355.6a2,2,0,0,1-2-2v-10A2,2,0,0,1,355.6,390.27Zm25-30h13.74a2,2,0,0,1,2,2v40a2,2,0,0,1-2,2H380.6a2,2,0,0,1-2-2v-40A2,2,0,0,1,380.6,360.27Z"/><path id="Path-162-Copy-2-4" data-name="Path-162-Copy-2" class="cls-47" d="M278.6,434.77a2,2,0,0,1,0-4h17.74a2,2,0,0,1,0,4Z"/><path id="Path-162-Copy-3-4" data-name="Path-162-Copy-3" class="cls-48" d="M278.6,444.77a2,2,0,0,1,0-4h37.74a2,2,0,0,1,0,4Z"/></g><g id="Rendi-pose-7"><g id="Head"><g id="Group"><path id="Combined-Shape-4" data-name="Combined-Shape" class="cls-49" d="M698.19,263.6l5-.05,1.11,15q-3.83,4.32-8.28,3.85t-8.71-6.17l1.74-5.48a21.81,21.81,0,0,1-5.79.92c-4.33,0-5.75-8.72-5.63-25.33,3.41,2.21,16.29,1.65,20.87,0C698.52,248.3,700.6,257.66,698.19,263.6Z"/></g><path id="Path-7-5" data-name="Path" class="cls-50" d="M684.91,256a3.8,3.8,0,0,0-2.13.65c-.43-1.81-1.17-5.33-2.32-6.09-5-3.3-7.93-8.49-4.41-11.87s17.36-.85,20.86-1.16q8.36-.74,8.35,6.86a4.33,4.33,0,0,1,3.55,0c2.47,1.91,2.34,10.38-2.23,21.08-1.16,2.72-3.68,4.08-7.38,4.08-3.52,0-6.32.62-7.89-2.13a17.09,17.09,0,0,0-3.8-4.46,4,4,0,0,0,1.27-3A3.93,3.93,0,0,0,684.91,256Z"/></g><g id="Shoes"><g id="Path-27"><g id="Path-23"><path class="cls-51" d="M646.57,529.32q-1.82,7.38-12.8,7.93t-9.37,7.94h36.74q6.06,0,4.59-4.42l-3-11.45Z"/></g><g class="cls-52"><rect id="Rectangle" class="cls-53" x="624.2" y="539.56" width="41.82" height="5.65"/></g></g><g id="Path-23-Copy-3"><g id="Path-23-Copy"><path class="cls-54" d="M721.42,529.32a25.3,25.3,0,0,0,7.11,7.93c4.66,3.52,2.89,7.94.34,7.94H702.66q-6,0-4.58-4.42l7.21-11.45Z"/></g><g class="cls-55"><rect class="cls-53" x="697.79" y="539.56" width="33.64" height="5.65"/></g></g></g><g id="hand-1"><path class="cls-56" d="M711.48,362c-.5.83-3.13,3.57-3.68,4.18s2.69.42,1.85,1.77c-1.26,2,2.55,1,2.11,2.35-.6,1.8,2.31-.35,3.91-1.62s3.41,2,7.27.22c1.12-.51,3.64-2.74,6.68-6.06a17.17,17.17,0,0,0-8.66-7l-2.9.43.16,1.69c.12.87-.2,2-1.26,2s-5.75,0-6.84.39a34.8,34.8,0,0,0-4.76,2.83c.23.94,2.44.79,3.66-.31A4.67,4.67,0,0,1,711.48,362Z"/></g><g id="Pants"><g id="Path-14-2" data-name="Path-14"><path class="cls-57" d="M666.64,364.18C654,424.45,658.28,420.83,652,457.54c-1.42,8.24-.68,17.8-2.35,26.06-2.65,13.15-1.08,24.39-4.35,37.58-.78,3.13-3.22,8,.71,8.89s15.57.51,18.13.51,1.19-5.3,2.18-7.9q9.69-25.3,10.94-45.89Q678.65,453,690.27,409q9.09,36.78,9.09,65.89c0,14.77,2.36,31.26,4,44.78.42,3.51-2.35,9.83,1.59,10.43s14,.6,16.71.51,2-8.38,3.42-17.44-2.57-29.12-1.47-61.84q1.1-32.7-6-85.72Z"/></g><g class="cls-58"><path id="Path-90" class="cls-59" d="M692.43,403.49l12.16-26.93q2.52,12.58-2.8,21.57c-5.32,9,3.38,27.14-1.69,33.45q-5.07,6.3-2.21,24.11l-7.52-42.24Z"/></g><g class="cls-58"><path id="Path-16-4" data-name="Path-16" class="cls-59" d="M718.69,365Q718,376.76,700,376.75c-18,0-8.32,14.1-26.74,18.75s-8.5,24.72-19.69,24.72q-11.21,0-2.83-55.27Z"/></g></g><g id="hand-2"><g id="Path-39"><path class="cls-60" d="M663.24,382.07q-6.74,8.35-5.12,12.53c1.62,4.17,9.71,9.14,13.78,3.06,1.87-2.79-3.89-1.08-2.82-2.29s1.24-.89,3.56-3.43c3-3.32,1.05-5,1.88-7.89Q675.93,379.06,663.24,382.07Z"/></g><g class="cls-61"><path id="Path-51" class="cls-62" d="M663.2,381.67q2.85,7.05,12.61,7.78l-.24-6.77Z"/></g></g><g id="Shirt"><path class="cls-63" d="M674.65,277.6c7.18-2.3,24.71-4.94,41.94-1.78a22.81,22.81,0,0,1,13.25,7.36c16.41,17,23.1,30.91,27.26,36q4.15,5.1-.33,11c-7.86,11.41-13.36,20.11-23.17,30-.56.56-1.46,2.8-3,3.6q-5.85,0-10.21-9,14.14-22.35,18.38-27.7a154.07,154.07,0,0,0-17.56-15.87q-3.54,27.58-3.57,36c0,8.24,1.52,15.58,1.49,16.56-.09,3,3,8.35-8.54,8.35s-16.71-1.54-28.26-1.54c-1.18,0-3.56,14.92-6.8,14.92q-7.72,0-12.84-3.82c-2.57-1,3.81-23.39,3.81-57.42l-1.22-32.18C664.3,282.12,669.85,279.13,674.65,277.6Z"/><g class="cls-64"><path id="Path-7-6" data-name="Path-7" class="cls-65" d="M673.33,273.15q-4.3,5.42,10.68,5.41t26.13-7Z"/></g><g class="cls-66"><path id="Path-36" class="cls-65" d="M721.09,311.61l2.34-16.8q1.79,16.8,8.6,18.59c6.82,1.79,4.23,10.38,6.67,13.65q-5.07.51-15.27,1.79Z"/></g><g class="cls-66"><path id="Path-38" class="cls-65" d="M681.94,370.94q4.39-25.29,4.87-34.06t0-31.81q5.46,8,5.46,16c0,8,11.23,16.5,2.13,25.71S693,369,688,371.56Q683,374.1,681.94,370.94Z"/></g></g><g id="Combined-Shape-2-2" data-name="Combined-Shape-2"><path class="cls-67" d="M668.47,395.64q4.72-4,5.39-5.35c.45-.91.52-2.52.24-4.81q2.64.4,4.08-3.06t5.91-24.21l20.12,5.13-11.94,39.18ZM665,353.74q-3.26,27.19-1.74,28.32-5.24,6.57-5.43,10.85L640,388.31l9.71-38.06Z"/><g class="cls-68"><path id="Path-42" class="cls-65" d="M689.38,359.44q.92,4.88-4.65,12.12c-5.56,7.25-1.66,17.78-7.06,19.33q-5.4,1.56-6.91,7.62l-15.11-4.08c0-5.88,1.37-10.37,4.18-13.5,4.21-4.68-4.8-21,2.24-28.23Q669.11,345.5,689.38,359.44Z"/></g></g></g><g id="Linda-pose-5"><g id="Shoes-2" data-name="Shoes"><g id="Path-24"><path class="cls-2" d="M419.58,539.66q-.87.68,7.88,5.61A103,103,0,0,0,441,551.39c3.56,1.36,2.68,4.14-1.41,4.14H405c-4,0-5.57-1.48-4.59-4.42l3-11.45Z"/><g class="cls-69"><ellipse class="cls-70" cx="413.2" cy="539.31" rx="20.92" ry="9.26"/></g></g><g id="Path-23-Copy-2"><path class="cls-3" d="M374.37,539.66a85.07,85.07,0,0,0,10.85,10.24c4.66,3.52,1.55,5.63-1,5.63H355.61c-4,0-5.57-1.48-4.59-4.42l7.22-11.45Z"/><g class="cls-71"><ellipse class="cls-72" cx="368.02" cy="538.82" rx="20.92" ry="9.26"/></g></g></g><g id="Pants-2" data-name="Pants"><g id="Path-14-3" data-name="Path-14"><path class="cls-73" d="M369.13,371.77c-10,19.32-3.38,53-4,86.52-.52,27.73-7,60.32-7.5,66.85-.26,3.6-2.48,15,1.88,15.46s12.45.5,15,.5,4.09-14.15,4.64-17.43c.83-5,4.29-28.12,8.4-53.54q2.49-15.37,8.3-49.42,8.4,90.74,6.56,108.72c-.36,3.53-1.54,11.17.41,11.17s15.25.5,16.72.5,1-8.37,2.41-17.43c.53-3.46,3.25-23.22,3.2-55.73,0-19.46.05-42.34-3.2-71.85q-.76-7-3.41-20Z"/></g><g class="cls-74"><path id="Path-4-4" data-name="Path-4" class="cls-59" d="M394.87,421.09q-8.62,1.74-12.08,7.52c-3.45,5.79,1.24,20.32-4.61,23.48s4.94,32.29,3.6,39.11q-1.33,6.84,3.13,8.2Z"/></g><g class="cls-75"><path id="Path-16-5" data-name="Path-16" class="cls-59" d="M432,380.61q-6.28,25.54-27.46,25.55c-21.18,0-3.77,11.1-25.4,16.57s-8.37,44.57-21.52,44.57q-13.16,0,7.5-99.11Z"/></g></g><g id="Shirt-2" data-name="Shirt"><g id="Path-8" data-name="Path"><path class="cls-76" d="M401.58,293.09c-14-3.9,2.07-.69-14.63,1A36.21,36.21,0,0,0,368.68,301C355.51,312,345.52,332.19,347,343.39q1.44,11.21,25.16,8.27c0,8.24-11.4,26.37-11.4,48.18.68.07,32.58,5.25,56.36-4.75q1.5-.63,1.05-19,2.79,21,5.31,21.05c.75,0-1.88-15.12-2.94-23.05a187.32,187.32,0,0,1-2-27q0-8,4.9-28.2,19.57-15.31,26.14-23.32t-8.82-11.43Q415.61,297,401.58,293.09Z"/></g><g class="cls-77"><path id="Path-26" class="cls-65" d="M422.91,318.7q2.7-9.19,14.37-11.06c11.67-1.86,11.87-12.33,19.2-14.36q7.32-2-8.28,13.1Z"/></g><g class="cls-78"><g id="Group-3" class="cls-79"><circle id="Oval-4" data-name="Oval" class="cls-16" cx="362.13" cy="308.09" r="3"/><circle id="Oval-Copy-5" class="cls-16" cx="382.13" cy="308.09" r="3"/><circle id="Oval-Copy-6" class="cls-16" cx="402.13" cy="308.09" r="3"/><circle id="Oval-Copy-7" class="cls-16" cx="422.13" cy="308.09" r="3"/><circle id="Oval-Copy-52" class="cls-16" cx="372.13" cy="298.09" r="3"/><circle id="Oval-Copy-51" class="cls-16" cx="392.13" cy="298.09" r="3"/><circle id="Oval-Copy-50" class="cls-16" cx="412.13" cy="298.09" r="3"/><circle id="Oval-Copy-49" class="cls-16" cx="432.13" cy="298.09" r="3"/><circle id="Oval-Copy-8" class="cls-16" cx="442.13" cy="308.09" r="3"/><circle id="Oval-Copy-13" class="cls-16" cx="352.13" cy="318.09" r="3"/><circle id="Oval-Copy-12" class="cls-16" cx="372.13" cy="318.09" r="3"/><circle id="Oval-Copy-11" class="cls-16" cx="392.13" cy="318.09" r="3"/><circle id="Oval-Copy-10" class="cls-16" cx="412.13" cy="318.09" r="3"/><circle id="Oval-Copy-9" class="cls-16" cx="432.13" cy="318.09" r="3"/><circle id="Oval-Copy-18" class="cls-16" cx="342.13" cy="328.09" r="3"/><circle id="Oval-Copy-17" class="cls-16" cx="362.13" cy="328.09" r="3"/><circle id="Oval-Copy-16" class="cls-16" cx="382.13" cy="328.09" r="3"/><circle id="Oval-Copy-15" class="cls-16" cx="402.13" cy="328.09" r="3"/><circle id="Oval-Copy-14" class="cls-16" cx="422.13" cy="328.09" r="3"/><circle id="Oval-Copy-23" class="cls-16" cx="352.13" cy="338.09" r="3"/><circle id="Oval-Copy-22" class="cls-16" cx="372.13" cy="338.09" r="3"/><circle id="Oval-Copy-21" class="cls-16" cx="392.13" cy="338.09" r="3"/><circle id="Oval-Copy-20" class="cls-16" cx="412.13" cy="338.09" r="3"/><circle id="Oval-Copy-19" class="cls-16" cx="432.13" cy="338.09" r="3"/><circle id="Oval-Copy-28" class="cls-16" cx="342.13" cy="348.09" r="3"/><circle id="Oval-Copy-27" class="cls-16" cx="362.13" cy="348.09" r="3"/><circle id="Oval-Copy-26" class="cls-16" cx="382.13" cy="348.09" r="3"/><circle id="Oval-Copy-25" class="cls-16" cx="402.13" cy="348.09" r="3"/><circle id="Oval-Copy-24" class="cls-16" cx="422.13" cy="348.09" r="3"/><circle id="Oval-Copy-33" class="cls-16" cx="352.13" cy="358.09" r="3"/><circle id="Oval-Copy-32" class="cls-16" cx="372.13" cy="358.09" r="3"/><circle id="Oval-Copy-31" class="cls-16" cx="392.13" cy="358.09" r="3"/><circle id="Oval-Copy-30" class="cls-16" cx="412.13" cy="358.09" r="3"/><circle id="Oval-Copy-29" class="cls-16" cx="432.13" cy="358.09" r="3"/><circle id="Oval-Copy-38" class="cls-16" cx="342.13" cy="368.09" r="3"/><circle id="Oval-Copy-37" class="cls-16" cx="362.13" cy="368.09" r="3"/><circle id="Oval-Copy-36" class="cls-16" cx="382.13" cy="368.09" r="3"/><circle id="Oval-Copy-35" class="cls-16" cx="402.13" cy="368.09" r="3"/><circle id="Oval-Copy-34" class="cls-16" cx="422.13" cy="368.09" r="3"/><circle id="Oval-Copy-43" class="cls-16" cx="352.13" cy="378.09" r="3"/><circle id="Oval-Copy-42" class="cls-16" cx="372.13" cy="378.09" r="3"/><circle id="Oval-Copy-41" class="cls-16" cx="392.13" cy="378.09" r="3"/><circle id="Oval-Copy-40" class="cls-16" cx="412.13" cy="378.09" r="3"/><circle id="Oval-Copy-39" class="cls-16" cx="432.13" cy="378.09" r="3"/><circle id="Oval-Copy-48" class="cls-16" cx="342.13" cy="388.09" r="3"/><circle id="Oval-Copy-47" class="cls-16" cx="362.13" cy="388.09" r="3"/><circle id="Oval-Copy-46" class="cls-16" cx="382.13" cy="388.09" r="3"/><circle id="Oval-Copy-45" class="cls-16" cx="402.13" cy="388.09" r="3"/></g></g><g class="cls-80"><circle id="Oval-Copy-44" class="cls-81" cx="422.13" cy="388.09" r="3"/></g><g class="cls-82"><path id="Path-97" class="cls-65" d="M409.35,294.06q-7.92,55.29-32.39,61.16t-35.63-.13l5.18-40,52.62-27Z"/></g><path id="Path-55" class="cls-83" d="M433.76,290.67c-4.06-4.08,2-6.84,5.21-5.68s10.1,8.58,8.65,14.84-6.82,8.49-8,7.2C436.87,303.88,437.81,294.75,433.76,290.67Z"/></g><g id="Hand"><path class="cls-84" d="M447.11,299.14q-1.14-11-8.07-13.91L459.43,258c1.12-4.69,2-7.65,2.77-8.86.52-.88,4.29-3.07,6.31-4,.77-.35,5.42-4,6.18-4,1.25-.13.61,2.37-2.13,4.72-3,2.57,2.24,6.07.59,10.56-.9,2.43-2.3,3.95-4.21,4.58C456.85,284.52,449.37,296.93,447.11,299.14Z"/></g><g id="Head-2" data-name="Head"><g id="Path-8-2" data-name="Path-8"><path class="cls-85" d="M408.1,260.67a22.72,22.72,0,0,1,4.65,9c2.4,10.11,1.62,19.57-2.92,20.7a10.25,10.25,0,0,1-4.86,0l-.22,4.83q.58,6.72-1.17,6.72c-1.75,0-9.92-1.92-13-8.33C392.74,293.24,406,271.41,408.1,260.67Z"/></g></g><g id="Hair"><path class="cls-86" d="M411.1,275.1a4,4,0,1,0-.64,4.82c-.78,4.8-2,9.94-3.3,15.17-4.89,20-16.81,57.74-41.86,54.71s-32-18.71-23-36.52,27.15-18.19,29.27-33.12,7.34-32.52,26-28.07C409.67,255,412.17,263.8,411.1,275.1Z"/></g></g><g id="Danang-pose-2"><g id="Shoes-3" data-name="Shoes"><g id="Path-24-2" data-name="Path-24"><g id="Path-23-2" data-name="Path-23"><path class="cls-87" d="M211.71,520.67q1.81,7.38,12.8,7.94t9.36,7.93H197.14q-6.06,0-4.59-4.42l3-11.45Z"/></g><g class="cls-88"><rect id="Rectangle-2" data-name="Rectangle" class="cls-89" x="187.29" y="529.76" width="52.08" height="7.09"/></g></g><g id="Path-23-Copy-2-2" data-name="Path-23-Copy-2"><g id="Path-23-Copy-2-3" data-name="Path-23-Copy"><path class="cls-90" d="M165.49,520.67a25.44,25.44,0,0,0,7.11,7.94c4.66,3.51,2.89,7.93.34,7.93H146.73q-6,0-4.59-4.42l7.22-11.45Z"/></g><g class="cls-91"><rect class="cls-89" x="138.15" y="529.76" width="41.07" height="7.09"/></g></g></g><g id="Pants-3" data-name="Pants"><g id="Path-14-4" data-name="Path-14"><path class="cls-92" d="M146.79,356.3c-6.17,42.74,2.89,60.41,0,98-.67,8.67,0,41.63.83,58.21.18,3.58-2.22,8,1.71,8.88s15.57.51,18.13.51,1.18-4.43,1.18-7.89c0-26.13,4-27.76,3.11-41.48q-1.6-26,8-72.24a320.41,320.41,0,0,0,9.34,46.35c3.49,12.44.25,28.29,3.25,52.44.43,3.5-1.05,21.21,2.89,21.81s14,.6,16.72.5,2.33-10.78,4.13-22.31,0-38.21,0-52.44q0-14.24-13.47-90.37Z"/></g><g class="cls-93"><path id="Path-16-6" data-name="Path-16" class="cls-59" d="M203,356.3q-.76,13.88-21.94,13.87c-21.17,0-3.07,23.63-24.7,29.09s-9.07,32.06-22.22,32.06q-13.14,0,11.33-73.49Z"/></g><g class="cls-94"><path id="Path-17-3" data-name="Path-17" class="cls-59" d="M178.39,405.36,185.1,380q4.43,9,2.93,20.84c-1.5,11.86,9.28,20.76,4.16,29.63s10.31,28.08-.83,42q-11.13,13.94-6-1.2Z"/></g></g><g id="Shirt-3" data-name="Shirt"><g id="Path-9" data-name="Path"><path class="cls-95" d="M187.72,266.92c-7.19-2.3-20.94-4.37-37.44-1.33-7.85,1.45-13.19,7.75-16.24,15-10.37,24.74-13.89,51.72,1.3,51.72h9.25q-.39,21.76-.36,22.75c.09,3-1.06,6.54,7,7.82s32.17,1.28,40.09.53,15.86-1.69,12.15-9.94q-3.7-8.26-4.4-37.69l15,8.9q8.4,2.63,12.64-3.17t19.14-33.65q0-6.69-11.3-6l-17.06,21.67-18.47-28.11A21,21,0,0,0,187.72,266.92Z"/></g><g class="cls-96"><path id="Path-61" class="cls-97" d="M170.9,272.84a160.3,160.3,0,0,1,7.74,57.72c-1.47,29.28,1.83,21.42,1.83,30.77s3.9,14.73,4.56,4.4-2.34-9-2.34-19,.24-36.51-2.22-50.87a130.82,130.82,0,0,0-9.57-30.5Z"/></g><g class="cls-98"><path id="Path-62" class="cls-99" d="M171.9,272.84q-2.57,3.68-2.56,5t4,3.67q4,29.46,3,38.68A11.23,11.23,0,0,1,177,325q-.3,1.36-1.24,6.44l-1.56.26q-1.1,5.67-1.78,12.17l7.18,5,7.32-8q-3.27-8-3.27-22t-7.31-38.31a11.85,11.85,0,0,0,1.12-3.9C177.5,275.84,175.63,274.57,171.9,272.84Z"/></g><g class="cls-98"><rect class="cls-100" x="182.64" y="289.84" width="11" height="3"/></g><g class="cls-101"><path id="Path-64" class="cls-102" d="M232.23,283.84q.66,9.44,6.17,10.59t10.7-3.78l-1.31-9.48-9.39-2.79-6.17,2.12Z"/></g><g class="cls-98"><path id="Path-6-3" data-name="Path-6" class="cls-103" d="M199.07,315.82q0-16.59-2.88-26.72,5.25,3.09,6.05,13.36c.8,10.27,6,.41,9.28,11.93s11.66,4,13.62,7.05q2,3.09-10.31,9.19Z"/></g><g class="cls-104"><path id="Path-7-7" data-name="Path-7" class="cls-103" d="M146.8,265.36q-.36,10.38,14.64,10.38c1.07,0,4.41,5.19,4.83,4.61.66-.91,2.3-3.7,4.12-3.78,3.61-.16,11.39,1.9,12.08.27q.41-.93-10.67-7-4.26-6.91-9.83-7.44T146.8,265.36Z"/></g><g class="cls-105"><path id="Path-56" class="cls-100" d="M157.94,260.92l7.25,18.91a1,1,0,0,0,1.29.57,1,1,0,0,0,.42-.29l6-7.27,8.72,4.36a1,1,0,0,0,1.34-.44,1,1,0,0,0,0-1l-8.37-14-12.44-3.53-4.51,2.61"/></g><g class="cls-98"><path id="Path-13-2" data-name="Path-13" class="cls-65" d="M133.82,355.19Q136.4,349,144,346l-.63,7.14-7.43,3.15Z"/></g><g class="cls-106"><path id="Path-20-3" data-name="Path-20" class="cls-65" d="M234.58,281.82c.79,5.58,2.83,8.37,6.09,8.37s5.57-1.69,6.89-5.06L237,278.81Z"/></g><g class="cls-98"><path id="Path-47" class="cls-103" d="M144.59,332.48q20.67-.44,31.11-1.07t13-1.61q-14.15,5-19.1,5c-4.94,0-4.79-3.59-10.21,3.86s-9.72-2.05-14.75,12Q139.55,364.79,144.59,332.48Z"/></g><g class="cls-98"><path id="Path-48" class="cls-103" d="M176.34,320.19l-31.75-5.12,5.7-24.15q4.53,5.13.91,14.64c-3.62,9.51,5.92.67,9.26,6.88Q163.82,318.65,176.34,320.19Z"/></g><g class="cls-98"><path id="Path-100" class="cls-102" d="M172,319.58l4.61.61a25.4,25.4,0,0,1,0,6.24c-.25,1.42-.56,3.08-.94,5l-5.36.3Q172.33,324.17,172,319.58Z"/></g></g><g id="Head-3" data-name="Head"><path id="Path-60" class="cls-107" d="M185.52,236.66q-.65-8.66-7.67-10.82c-7-2.15-16.25-.55-18.86,7.81q-2.61,8.35,4.61,20Z"/><g id="Path-8-3" data-name="Path-8"><g id="Path-3-2" data-name="Path-3"><path class="cls-108" d="M160.09,264.37q10.18,8.34,12.21,8.33c1.35,0,2.51-2.77,3.5-8.33l-1.12-6.72-11.92-6.2Z"/></g><g class="cls-109"><path id="Path-9-2" data-name="Path-9" class="cls-110" d="M162.49,251.71q2.16,13.47,11.4,14.55t8.53-5.86Z"/></g></g><g id="Group-2" data-name="Group"><path class="cls-111" d="M169.2,235.61c5.36,2,12.91,3.21,16.32,1-.65,16.88-3.38,25.33-7.71,25.33-6.49,0-13.58-3.32-15.21-10.3a1.74,1.74,0,0,1,0-.22,4.36,4.36,0,0,1-.51,0,3.59,3.59,0,1,1,3-5.58C165.39,246,163.83,233.61,169.2,235.61Z"/><g class="cls-112"><path id="Path-65" class="cls-113" d="M178.41,251.08q-5,.66-6.21,3.3t6.21-2.25q5.19,4,5.19,1.71C183.6,252.3,181.87,251.37,178.41,251.08Z"/></g><g class="cls-114"><path id="Path-11-3" data-name="Path-11" class="cls-110" d="M185.64,236.84q-6.85,4.42-12.38,3.29c-5.52-1.14-4.33,7.21-8.92,5l1.86-10.94Z"/></g></g></g><g id="Hands"><g id="Path-21"><g id="Path-10-17" data-name="Path-10"><path class="cls-115" d="M239,274.58c2.23-2.65,0-7,2.46-7a3.42,3.42,0,0,1,2.25,2.33,10.46,10.46,0,0,1,0,3.54q4.92.48,6.08,1.87c1.22,1.46.71,7.35,0,9.29-1,2.71-2.27,2.71-5,3.56a17.9,17.9,0,0,0-3.86,2,4.07,4.07,0,0,1-3.56-1q-2-1.47-2.78-6.72A31.85,31.85,0,0,1,239,274.58Z"/></g><g class="cls-116"><path id="Path-22" class="cls-110" d="M234.58,281.57q2.82,7.92,9.63,6.66l-3.29,3.49-6.34-2.62Z"/></g><g class="cls-117"><path id="Path-45" class="cls-110" d="M244.88,274.28c-2.44.32-3.66,1.86-3.66,4.64,0,4.16.05,7.87,3.66,8.83q-6.33-.51-5.67-7.93T244.88,274.28Z"/></g></g><g id="Group-2-2" data-name="Group-2"><polygon id="Path-49" class="cls-118" points="188.65 297.56 179.25 341.6 210.81 340.92 220.89 297.56 188.65 297.56"/><path id="Path-46" class="cls-119" d="M175.7,331.41q1.5-6.41,1-10c3.22-2.76,5.74-4.15,7.55-4.15l-.71,3.38q6.7-.27,9.82-3.38c3.11-3.11,1.57,3.85-.45,4.92s-1.14,7.27-6,8.25A57.17,57.17,0,0,1,175.7,331.41Z"/></g></g></g><path class="cls-120" d="M45.27,355.27c4.66-2.23,9.3,12.62,9.3,12.62,7.93,10.47,19-3.47,17.93,12.19-1.9,27.4,31.54,8.62,16.11,37.23s13.62,16.17,4,39.24,2.84,50.58-11.58,39.28c0,0-12.7-27.86-25.8-36.47s7.85-18.84,3.75-30.55c-5.95-17-20.29-16.33-9.95-34.59S29.41,362.85,45.27,355.27Z"/><g class="cls-121"><path class="cls-122" d="M85.63,485.34c-6.26-4.39-13.57-35-14-53.28-.22-9.35-3-13.25-5.42-16.68s-4.35-6.13-3.17-12.64c2.24-12.45-3.66-17.82-3.72-17.87l.69-.78c.26.23,6.39,5.77,4,18.83-1.09,6.09.71,8.64,3,11.86,2.4,3.38,5.38,7.59,5.62,17.25.46,19.59,7.94,48.52,13.56,52.47Z"/></g><path class="cls-123" d="M88,487.61a13.67,13.67,0,0,1-2.65-.28,5.76,5.76,0,0,1-4.69-3.78c-1.69-4.82,2.22-12.65,5.39-16.42a24.19,24.19,0,0,0,4.79-15.54c-.1-1.5-.25-2.9-.39-4.13-.4-3.55-.69-6.12.84-7.84,1.35-1.51,3.94-2.17,8.69-2.19,8.32,0,11.61-3.48,14.25-6.25a15,15,0,0,1,3.47-3h0c4.15-2.27,8.54-2.6,10.45-.79.9.85,1.67,2.53.17,5.67a22,22,0,0,1-4.58,6.13c-1.92,2-3.19,3.25-2.52,5.83.15.61.33,1.22.51,1.83,1.28,4.39,2.74,9.36-4.77,12.74-1.6.72-3.05,1.29-4.33,1.79-5.24,2.05-8.4,3.3-12,10.84-.69,1.46-1.3,2.84-1.89,4.18C95.92,482.79,93.79,487.61,88,487.61Z"/><g class="cls-121"><path class="cls-122" d="M85.43,493.58l-1-.05c0-1,1.35-23.84,10.54-30.53,10.07-7.34,13.24-15.23,14.76-20.53,1.78-6.24,10.85-7.91,11.24-8l.18,1c-.09,0-8.82,1.63-10.43,7.25-1.55,5.44-4.81,13.55-15.14,21.08C86.76,470.24,85.45,493.35,85.43,493.58Z"/></g><path class="cls-124" d="M106.43,378.34c-6.53-2.23-5.17,10.34-7.93,19.65s-30.68,4.06-19,27.36-14.82,7.8-6.89,28.13S73.34,495.57,82,490s4.85-31.14,13.81-34.18,10.42-6.59,1.55-14.86,23.25-16.49,15.32-33.19S114,380.93,106.43,378.34Z"/><g class="cls-121"><path class="cls-122" d="M86,489.06c-.82-3.48-7.83-34.12-1.29-37.82,5.77-3.26,5.62-16,4.73-27.95-.8-10.61,12.83-15.57,13.41-15.78l.34,1c-.13.05-13.46,4.9-12.72,14.73.92,12.31,1,25.37-5.25,28.92-5,2.81-.39,27.43,1.79,36.68Z"/></g><polygon class="cls-125" points="100.79 478.15 91.47 513.5 70.65 513.5 61.33 478.15 100.79 478.15"/><circle class="cls-126" cx="421.5" cy="81.5" r="28.5"/><path class="cls-16" d="M437.23,77a.38.38,0,0,1,.61.29v13a3,3,0,0,1-3,3H408.47a3,3,0,0,1-3-3V77.33a.38.38,0,0,1,.62-.3c1.42,1.1,3.3,2.5,9.75,7.19,1.34,1,3.59,3,5.84,3s4.55-2.07,5.84-3C433.94,79.53,435.81,78.13,437.23,77Z"/><path class="cls-16" d="M421.64,85.2c1.47,0,3.58-1.85,4.64-2.62,8.4-6.09,9-6.62,11-8.14a1.52,1.52,0,0,0,.58-1.2V72a3,3,0,0,0-3-3H408.47a3,3,0,0,0-3,3v1.2a1.53,1.53,0,0,0,.59,1.2c1.93,1.51,2.57,2,11,8.14,1.07.77,3.18,2.65,4.65,2.62Z"/><path class="cls-16" d="M629.46,53.69a26,26,0,0,0,26,26,1.34,1.34,0,0,0,1.31-1l1.35-5.82a1.37,1.37,0,0,0-.79-1.55l-6.27-2.69a1.35,1.35,0,0,0-1.57.39l-2.78,3.39a20.8,20.8,0,0,1-9.93-9.92l3.4-2.78a1.36,1.36,0,0,0,.39-1.57l-2.69-6.28a1.37,1.37,0,0,0-1.54-.78l-5.83,1.35A1.34,1.34,0,0,0,629.46,53.69Z"/><path class="cls-127" d="M742.14,178.91V162.55A6.55,6.55,0,0,0,735.6,156H706.14a6.55,6.55,0,0,0-6.54,6.55v16.36a6.55,6.55,0,0,0,6.54,6.55V191a1,1,0,0,0,1.59.8l8.47-6.35h19.4A6.54,6.54,0,0,0,742.14,178.91Zm9.82-6.55h-6.54v6.55a9.84,9.84,0,0,1-9.82,9.82H719.23v6.54a6.56,6.56,0,0,0,6.55,6.55h12.85l8.47,6.35a1,1,0,0,0,1.59-.8v-5.55H752a6.56,6.56,0,0,0,6.55-6.55V178.91A6.56,6.56,0,0,0,752,172.36Z"/><g id="Settings-1"><path id="Shape" class="cls-128" d="M33.19,257a5.41,5.41,0,0,1-7.2-2.59,5.47,5.47,0,0,1-.5-1.85,16.54,16.54,0,0,0-7-12.2,5.41,5.41,0,0,1-1.35-7.53,5.1,5.1,0,0,1,1.35-1.35,16.54,16.54,0,0,0,7-12.2,5.41,5.41,0,0,1,7.7-4.44,16.59,16.59,0,0,0,14.08,0,5.42,5.42,0,0,1,7.7,4.44,16.54,16.54,0,0,0,7,12.2A5.41,5.41,0,0,1,63.36,239,5.25,5.25,0,0,1,62,240.32a16.54,16.54,0,0,0-7,12.2,5.41,5.41,0,0,1-7.7,4.44A16.52,16.52,0,0,0,33.19,257Zm7-13.78a7.3,7.3,0,1,0-7.3-7.3A7.3,7.3,0,0,0,40.23,243.18Z"/><path id="Oval-5" data-name="Oval" class="cls-129" d="M40.23,247.88a12,12,0,1,1,12-12A12,12,0,0,1,40.23,247.88Zm0-1a11,11,0,1,0-11-11A11,11,0,0,0,40.23,246.88Z"/></g><g id="Calendar"><path id="Path-10-18" data-name="Path" class="cls-130" d="M205.29,32.49H239a5.06,5.06,0,0,1,5.06,5.07V71.3A5.06,5.06,0,0,1,239,76.36H205.29a5.07,5.07,0,0,1-5.06-5.06V37.56A5.07,5.07,0,0,1,205.29,32.49Z"/><path class="cls-131" d="M205.29,32.49H239a5.06,5.06,0,0,1,5.06,5.07V44.3H200.23V37.56A5.07,5.07,0,0,1,205.29,32.49Z"/><g id="Group-19"><circle id="Oval-6" data-name="Oval" class="cls-42" cx="210.91" cy="38.45" r="3.12"/><path id="Path-142" class="cls-132" d="M209.31,31.69a1.69,1.69,0,1,1,3.38,0v6.67a1.69,1.69,0,1,1-3.38,0Z"/></g><g id="Group-19-Copy"><circle class="cls-42" cx="232" cy="38.45" r="3.12"/><path class="cls-132" d="M230.4,31.69a1.69,1.69,0,1,1,3.37,0v6.67a1.69,1.69,0,1,1-3.37,0Z"/></g></g></svg>