<svg width="49" height="39" viewBox="0 0 149 144" fill="none" xmlns="http://www.w3.org/2000/svg">
<path d="M26.1222 109.91C29.2619 107.298 36.8286 101.781 60.2823 91.7729C60.4392 91.7142 60.5962 91.6262 60.7532 91.5675L65.9965 89.3663C66.0907 89.337 66.1849 89.2783 66.2791 89.249V95.2067L67.4722 104.862C73.1551 103.336 80.4078 101.722 80.4078 101.722L93.0922 105.802L94.4109 95.1774V89.249C94.5679 89.3076 94.6935 89.3663 94.8505 89.425L97.2995 90.4522C98.8693 91.0979 100.345 91.7436 101.789 92.3599C104.803 93.6512 107.535 94.8545 110.015 95.9991C126.216 103.424 131.899 107.68 134.599 109.91C135.667 110.791 136.671 112.2 137.551 113.96C144.207 104.158 148.069 92.536 148.069 80.0628C148.1 45.0793 117.77 16.7285 80.3764 16.7285C42.9824 16.7285 12.6528 45.0793 12.6528 80.0628C12.6528 92.536 16.5147 104.158 23.1709 113.96C24.0814 112.2 25.0547 110.82 26.1222 109.91Z" fill="#00B8E9"/>
<path d="M66.3105 65.1831V95.2361C70.1724 99.521 75.2901 101.722 80.3765 101.781V53.0034C73.3435 53.0034 66.3105 57.0535 66.3105 65.1831Z" fill="#DCC5A1"/>
<path d="M80.377 53.0034V101.751C85.4947 101.781 90.581 99.6384 94.4429 95.2067V65.1831C94.4429 57.0535 87.4099 53.0034 80.377 53.0034Z" fill="#EDD9B4"/>
<path fill-rule="evenodd" clip-rule="evenodd" d="M94.4424 64.6255V83.8488C89.1048 87.312 83.9871 89.249 80.3765 89.249C76.7658 89.249 71.6167 87.312 66.3105 83.8488V64.6255C66.3105 49.1294 94.4424 49.1294 94.4424 64.6255Z" fill="#BC9F82"/>
<path d="M64.1758 64.332C64.1758 64.332 77.8649 68.6463 95.0705 64.332C95.0705 64.332 82.2605 78.8302 64.1758 64.332Z" fill="white"/>
<path d="M64.1758 64.3323C64.1758 64.3323 78.4615 68.9693 95.0705 64.3323C85.1491 63.8627 87.2213 63.3931 64.1758 64.3323Z" fill="#E5917A"/>
<path d="M64.1758 64.332C64.1758 64.332 79.4348 78.1552 95.0705 64.332C95.0705 64.332 91.7111 74.3399 80.4081 74.3693C69.1051 74.428 64.1758 64.332 64.1758 64.332Z" fill="#E5917A"/>
<path d="M80.3766 11.2407C51.6797 11.2407 46.6875 30.9336 47.8806 47.3395C46.6247 46.3417 45.2747 45.9014 44.0816 46.283C41.6012 47.046 40.7221 50.9201 42.135 54.9115C43.5478 58.9322 46.6875 61.5443 49.1679 60.7812C49.4819 60.6931 49.7958 60.517 50.047 60.3116C51.2087 64.7432 52.5274 67.9129 53.1867 68.8227C56.5776 73.5185 72.7157 85.9329 80.3452 85.9329L80.3766 11.2407Z" fill="#DCC5A1"/>
<path d="M116.578 46.283C115.416 45.9308 114.097 46.3123 112.904 47.2515C114.066 30.8456 109.043 11.2407 80.377 11.2407V85.9623C88.0065 85.9623 104.145 73.5478 107.535 68.8521C108.195 67.9422 109.482 64.8019 110.644 60.429C110.895 60.6051 111.146 60.7225 111.429 60.8105C113.909 61.5736 117.08 58.9322 118.462 54.9408C119.906 50.92 119.058 47.046 116.578 46.283Z" fill="#EDD9B4"/>
<path fill-rule="evenodd" clip-rule="evenodd" d="M58.7751 29.0843C56.0436 43.0836 49.1676 41.7629 49.7014 58.1981C47.5036 45.4021 44.2069 28.3506 53.5004 17.1394C60.9415 8.15872 85.5883 1.76072 101.538 12.5023C119.152 16.0241 113.657 49.5696 111.302 55.9089C109.638 45.6369 105.965 41.352 101.287 29.2897C94.976 33.5453 66.907 34.4844 58.7751 29.0843Z" fill="#422F18"/>
<path d="M66.8447 46.5469C68.6657 46.5469 70.1728 48.1317 70.1728 50.0687C70.1728 52.0057 68.6971 53.5905 66.8447 53.5905C65.0237 53.5905 63.5166 52.0057 63.5166 50.0687C63.5166 48.1024 64.9923 46.5469 66.8447 46.5469Z" fill="#342214"/>
<path d="M93.7832 46.5469C95.6042 46.5469 97.1113 48.1317 97.1113 50.0687C97.1113 52.0057 95.6356 53.5905 93.7832 53.5905C91.9621 53.5905 90.4551 52.0057 90.4551 50.0687C90.4865 48.1024 91.9621 46.5469 93.7832 46.5469Z" fill="#342214"/>
<path d="M73.4692 68.8228C74.6623 71.2587 77.2683 72.9609 80.3138 72.9609C83.3593 72.9609 85.9967 71.2587 87.1584 68.8228H73.4692Z" fill="white"/>
<path d="M60.7534 91.5678L65.9967 89.3667C64.2071 90.1298 62.4489 90.8635 60.7534 91.5678Z" fill="#3E7EBC"/>
<path d="M94.8818 89.4546L97.3308 90.4818C96.5459 90.1296 95.7296 89.8068 94.8818 89.4546Z" fill="#3E7EBC"/>
<path d="M60.2827 91.7733C60.4397 91.7146 60.5967 91.6266 60.7537 91.5679L60.2827 91.7733Z" fill="#89BCE5"/>
<path d="M66.3104 89.249L66.0278 89.3664C66.122 89.3371 66.2162 89.2784 66.3104 89.249Z" fill="#89BCE5"/>
<path d="M101.789 92.3309L97.3311 90.4819C98.9009 91.1276 100.377 91.7733 101.821 92.3896L101.789 92.3309Z" fill="#89BCE5"/>
<path d="M94.4424 89.2783C94.5994 89.337 94.725 89.3957 94.882 89.4544L94.4424 89.2783Z" fill="#89BCE5"/>
<path d="M43.0453 132.89C43.422 130.132 43.6732 128.429 43.6732 128.429C43.6732 128.429 43.6732 130.249 43.6732 133.272C48.6026 136.265 54.0029 138.643 59.7171 140.374L50.3294 122.56L61.3812 115.663L47.8804 109.764L60.2823 91.7729C36.8286 101.781 29.2619 107.298 26.1222 109.91C25.0547 110.791 24.05 112.2 23.1709 113.96C28.2886 121.503 35.0704 127.96 43.0453 132.89Z" fill="#3E7EBC"/>
<path d="M134.631 109.91C131.962 107.68 126.248 103.424 110.047 95.9991C107.567 94.8545 104.835 93.6512 101.821 92.3599L112.81 109.764L99.3091 115.663L110.361 122.56L100.973 140.404C106.719 138.701 112.119 136.295 117.08 133.301C117.08 130.278 117.08 128.459 117.08 128.459C117.08 128.459 117.331 130.132 117.708 132.92C125.683 127.989 132.464 121.532 137.582 113.99C136.672 112.2 135.698 110.82 134.631 109.91Z" fill="#3E7EBC"/>
<path d="M72.2134 142.898L72.2448 143.221C72.5274 143.221 72.7785 143.251 73.0611 143.251L73.0925 143.016C72.8099 142.986 72.5274 142.957 72.2134 142.898Z" fill="#FFFF00"/>
<path d="M72.2131 142.898C72.4957 142.928 72.8097 142.957 73.0923 142.986L77.7076 112.757L73.94 107.885L80.4078 101.722C80.4078 101.722 73.155 103.336 67.4722 104.862L72.2131 142.898Z" fill="#FFFF00"/>
<path d="M87.6611 143.016L87.6925 143.251C87.9437 143.251 88.1949 143.221 88.4461 143.221L88.4775 142.928C88.1949 142.957 87.9123 142.986 87.6611 143.016Z" fill="#FFFF00"/>
<path d="M80.4395 101.751L86.6875 107.915L82.9826 112.787L87.598 143.016C87.8806 142.986 88.1631 142.957 88.4457 142.928L93.0925 105.831L80.4395 101.751Z" fill="#FFFF00"/>
<path d="M67.5041 104.892L66.311 95.2361V89.2783C66.2168 89.3077 66.1226 89.3664 66.0284 89.3957L60.7851 91.5969C60.6281 91.6556 60.4711 91.7436 60.3141 91.8023L47.8809 109.764L61.3816 115.663L50.3298 122.56L59.7176 140.374C62.3549 141.167 65.0551 141.812 67.818 142.282C69.2623 142.546 70.738 142.751 72.2136 142.928L67.5041 104.892Z" fill="#89BCE5"/>
<path d="M112.81 109.764L101.821 92.36C100.377 91.7437 98.9009 91.098 97.331 90.4523L94.8821 89.4251C94.7251 89.3664 94.5995 89.3077 94.4425 89.249V95.1774L93.1238 105.802L88.4771 142.928C90.7376 142.664 92.9668 142.311 95.1646 141.871C97.1427 141.46 99.0579 140.961 100.973 140.404L110.361 122.56L99.3091 115.663L112.81 109.764Z" fill="#89BCE5"/>
<path d="M83.0135 112.787L86.7183 107.915L80.4703 101.751L74.0025 107.915L77.7702 112.787L73.1548 143.016C75.541 143.25 77.9585 143.368 80.4075 143.368C82.8565 143.368 85.2741 143.25 87.6603 143.016L83.0135 112.787Z" fill="#1B75BC"/>
<path d="M43.0449 132.891C43.2647 133.008 43.4531 133.155 43.6729 133.272C43.6729 130.249 43.6729 128.43 43.6729 128.43C43.6729 128.43 43.4217 130.103 43.0449 132.891Z" fill="#314E67"/>
<path d="M117.08 133.272C117.3 133.155 117.488 133.008 117.708 132.891C117.331 130.132 117.08 128.43 117.08 128.43C117.08 128.43 117.111 130.249 117.08 133.272Z" fill="#314E67"/>
<path fill-rule="evenodd" clip-rule="evenodd" d="M66.3106 85.2871L65.0547 89.7481L68.5084 113.051L80.4393 101.752L66.3106 85.2871Z" fill="white"/>
<path fill-rule="evenodd" clip-rule="evenodd" d="M94.4426 85.2871L95.4159 89.6894L92.182 113.286L80.4395 101.752L94.4426 85.2871Z" fill="white"/>
</svg>
