<svg width="29" height="103" viewBox="0 0 69 103" fill="black" xmlns="http://www.w3.org/2000/svg">
<path d="M58.7547 30.6718H9.7786C4.62589 30.6718 0.450481 34.8472 0.450481 40L5.50162 93.6655C5.50162 98.8182 9.67703 103 14.8297 103H54.4841C59.6368 103 63.8122 98.8182 63.8122 93.6655L68.0892 40C68.0893 34.8472 63.9074 30.6718 58.7547 30.6718ZM21.8291 86.6598C21.8291 89.2298 19.7413 91.3301 17.165 91.3301C14.5886 91.3301 12.5009 89.2298 12.5009 86.6598V44.6513C12.5009 42.0813 14.5886 39.9936 17.165 39.9936C19.7413 39.9936 21.8291 42.075 21.8291 44.6513V86.6598ZM38.1566 86.6598C38.1566 89.2298 36.069 91.3301 33.4925 91.3301C30.9161 91.3301 28.8283 89.2298 28.8283 86.6598V44.6513C28.8283 42.0813 30.9161 39.9936 33.4925 39.9936C36.069 39.9936 38.1566 42.075 38.1566 44.6513V86.6598ZM54.4842 86.6598C54.4842 89.2298 52.3964 91.3301 49.8201 91.3301C47.2437 91.3301 45.1561 89.2298 45.1561 86.6598V44.6513C45.1561 42.0813 47.2439 39.9936 49.8201 39.9936C52.3966 39.9936 54.4842 42.075 54.4842 44.6513V86.6598ZM7.28482 26.0013L63.7615 11.476C66.8835 10.6765 68.7618 7.49089 67.956 4.37523C67.1501 1.2532 63.9772 -0.618819 60.8551 0.18708L43.4553 4.66081C41.8498 2.27485 38.918 1.00572 35.9738 1.76077L29.1965 3.51224C26.2521 4.26742 24.2977 6.79293 24.0376 9.65487L4.37867 14.7124C1.26288 15.5057 -0.61538 18.6912 0.184146 21.8068C0.989785 24.9226 4.16904 26.8009 7.28482 26.0013Z" fill="#FF0000"/>
</svg>
