<svg width="20" height="15" viewBox="0 0 70 68" fill="white" xmlns="http://www.w3.org/2000/svg">
<path d="M30.7623 52.2944C36.8809 52.2944 42.7489 49.9332 47.0754 45.7303C51.4019 41.5274 53.8325 35.8271 53.8325 29.8833C53.8325 23.9395 51.4019 18.2392 47.0754 14.0363C42.7489 9.8334 36.8809 7.47224 30.7623 7.47224C24.6436 7.47224 18.7756 9.8334 14.4491 14.0363C10.1226 18.2392 7.69201 23.9395 7.69201 29.8833C7.69201 35.8271 10.1226 41.5274 14.4491 45.7303C18.7756 49.9332 24.6436 52.2944 30.7623 52.2944ZM55.0629 48.2081L68.8281 61.58C69.1951 61.9248 69.4877 62.3372 69.6889 62.793C69.8901 63.2489 69.9958 63.7391 69.9999 64.235C70.004 64.731 69.9063 65.2228 69.7126 65.6817C69.519 66.1406 69.2332 66.5574 68.8719 66.9079C68.5106 67.2583 68.0811 67.5354 67.6084 67.7229C67.1358 67.9103 66.6294 68.0045 66.1189 67.9998C65.6083 67.9952 65.1039 67.8918 64.6349 67.6957C64.1659 67.4997 63.7419 67.2148 63.3874 66.8578L49.6222 53.4859C43.4411 58.1468 35.6639 60.3443 27.8737 59.631C20.0835 58.9177 12.8659 55.3472 7.69029 49.6464C2.51465 43.9455 -0.22998 36.5429 0.0151072 28.9455C0.260194 21.3481 3.47658 14.1269 9.0095 8.75208C14.5424 3.37725 21.976 0.25276 29.7969 0.0146756C37.6178 -0.223409 45.2381 2.44281 51.1066 7.47056C56.9751 12.4983 60.6506 19.5096 61.3849 27.0773C62.1192 34.6449 59.8571 42.1999 55.0591 48.2044L55.0629 48.2081Z" fill="white"/>
</svg>
